<svg xmlns="http://www.w3.org/2000/svg" xmlns:xlink="http://www.w3.org/1999/xlink" width="793" zoomAndPan="magnify" viewBox="0 0 595.5 842.249979" height="1122" preserveAspectRatio="xMidYMid meet" version="1.0"><defs><clipPath id="5902fda9a4"><path d="M 203 142.039062 L 516 142.039062 L 516 700.011719 L 203 700.011719 Z M 203 142.039062 " clip-rule="nonzero"/></clipPath><clipPath id="0ab72bb117"><path d="M 179 284 L 535.765625 284 L 535.765625 303 L 179 303 Z M 179 284 " clip-rule="nonzero"/></clipPath><clipPath id="6c7263a598"><path d="M 179 422 L 535.765625 422 L 535.765625 442 L 179 442 Z M 179 422 " clip-rule="nonzero"/></clipPath><clipPath id="7bd3db1063"><path d="M 291 566 L 432 566 L 432 700.011719 L 291 700.011719 Z M 291 566 " clip-rule="nonzero"/></clipPath></defs><path fill="#ffd252" d="M 212.609375 151.464844 L 505.652344 151.464844 L 505.652344 690.574219 L 212.609375 690.574219 Z M 212.609375 151.464844 " fill-opacity="1" fill-rule="nonzero"/><g clip-path="url(#5902fda9a4)"><path fill="#5e1235" d="M 505.652344 700.011719 L 212.585938 700.011719 C 211.96875 700.011719 211.355469 699.949219 210.75 699.828125 C 210.140625 699.707031 209.554688 699.527344 208.980469 699.292969 C 208.410156 699.054688 207.867188 698.765625 207.351562 698.421875 C 206.835938 698.078125 206.363281 697.6875 205.925781 697.25 C 205.488281 696.8125 205.097656 696.335938 204.753906 695.820312 C 204.410156 695.304688 204.117188 694.761719 203.882812 694.191406 C 203.644531 693.617188 203.464844 693.03125 203.34375 692.421875 C 203.222656 691.816406 203.164062 691.203125 203.164062 690.582031 L 203.164062 151.464844 C 203.164062 150.84375 203.222656 150.230469 203.34375 149.625 C 203.464844 149.015625 203.644531 148.425781 203.882812 147.851562 C 204.121094 147.28125 204.410156 146.734375 204.757812 146.222656 C 205.101562 145.707031 205.492188 145.230469 205.933594 144.792969 C 206.371094 144.355469 206.847656 143.964844 207.363281 143.621094 C 207.878906 143.277344 208.421875 142.984375 208.996094 142.75 C 209.570312 142.511719 210.160156 142.335938 210.769531 142.214844 C 211.375 142.097656 211.988281 142.035156 212.609375 142.039062 L 505.671875 142.039062 C 506.292969 142.039062 506.90625 142.097656 507.511719 142.21875 C 508.117188 142.339844 508.707031 142.519531 509.28125 142.757812 C 509.851562 142.992188 510.394531 143.285156 510.910156 143.628906 C 511.421875 143.972656 511.898438 144.363281 512.335938 144.800781 C 512.773438 145.238281 513.164062 145.714844 513.507812 146.226562 C 513.851562 146.742188 514.144531 147.285156 514.378906 147.859375 C 514.617188 148.429688 514.796875 149.019531 514.917969 149.625 C 515.035156 150.234375 515.097656 150.847656 515.097656 151.464844 L 515.097656 690.582031 C 515.097656 691.203125 515.035156 691.816406 514.914062 692.425781 C 514.792969 693.03125 514.617188 693.625 514.378906 694.195312 C 514.140625 694.769531 513.847656 695.3125 513.503906 695.828125 C 513.160156 696.34375 512.769531 696.820312 512.328125 697.257812 C 511.890625 697.695312 511.414062 698.085938 510.898438 698.429688 C 510.382812 698.773438 509.835938 699.0625 509.265625 699.296875 C 508.691406 699.535156 508.101562 699.710938 507.492188 699.832031 C 506.886719 699.953125 506.269531 700.011719 505.652344 700.011719 Z M 222.035156 681.144531 L 496.226562 681.144531 L 496.226562 160.902344 L 222.035156 160.902344 Z M 222.035156 681.144531 " fill-opacity="1" fill-rule="nonzero"/></g><g clip-path="url(#0ab72bb117)"><path fill="#5e1235" d="M 526.121094 302.878906 L 188.902344 302.878906 C 188.285156 302.878906 187.671875 302.820312 187.066406 302.699219 C 186.457031 302.578125 185.867188 302.398438 185.296875 302.160156 C 184.726562 301.921875 184.183594 301.632812 183.667969 301.289062 C 183.15625 300.941406 182.679688 300.550781 182.242188 300.113281 C 181.804688 299.675781 181.414062 299.199219 181.070312 298.683594 C 180.726562 298.171875 180.4375 297.628906 180.199219 297.054688 C 179.964844 296.484375 179.785156 295.894531 179.664062 295.289062 C 179.542969 294.679688 179.484375 294.066406 179.484375 293.449219 C 179.484375 292.828125 179.542969 292.214844 179.664062 291.609375 C 179.785156 291.003906 179.964844 290.414062 180.199219 289.839844 C 180.4375 289.269531 180.726562 288.726562 181.070312 288.210938 C 181.414062 287.695312 181.804688 287.21875 182.242188 286.78125 C 182.679688 286.34375 183.15625 285.953125 183.667969 285.609375 C 184.183594 285.265625 184.726562 284.972656 185.296875 284.738281 C 185.867188 284.5 186.457031 284.320312 187.066406 284.199219 C 187.671875 284.078125 188.285156 284.015625 188.902344 284.015625 L 526.121094 284.015625 C 526.742188 284.015625 527.355469 284.078125 527.960938 284.199219 C 528.566406 284.320312 529.15625 284.5 529.726562 284.738281 C 530.300781 284.972656 530.84375 285.265625 531.355469 285.609375 C 531.871094 285.953125 532.347656 286.34375 532.785156 286.78125 C 533.222656 287.21875 533.613281 287.695312 533.957031 288.210938 C 534.300781 288.726562 534.589844 289.269531 534.824219 289.839844 C 535.0625 290.414062 535.242188 291.003906 535.363281 291.609375 C 535.480469 292.214844 535.542969 292.828125 535.542969 293.449219 C 535.542969 294.066406 535.480469 294.679688 535.363281 295.289062 C 535.242188 295.894531 535.0625 296.484375 534.824219 297.054688 C 534.589844 297.628906 534.300781 298.171875 533.957031 298.683594 C 533.613281 299.199219 533.222656 299.675781 532.785156 300.113281 C 532.347656 300.550781 531.871094 300.941406 531.355469 301.289062 C 530.84375 301.632812 530.300781 301.921875 529.726562 302.160156 C 529.15625 302.398438 528.566406 302.578125 527.960938 302.699219 C 527.355469 302.820312 526.742188 302.878906 526.121094 302.878906 Z M 526.121094 302.878906 " fill-opacity="1" fill-rule="nonzero"/></g><g clip-path="url(#6c7263a598)"><path fill="#5e1235" d="M 526.121094 441.632812 L 188.902344 441.632812 C 188.285156 441.632812 187.671875 441.570312 187.0625 441.449219 C 186.457031 441.328125 185.867188 441.152344 185.292969 440.914062 C 184.722656 440.675781 184.179688 440.386719 183.664062 440.042969 C 183.148438 439.699219 182.671875 439.308594 182.234375 438.871094 C 181.796875 438.429688 181.40625 437.957031 181.0625 437.441406 C 180.71875 436.925781 180.429688 436.382812 180.191406 435.808594 C 179.953125 435.238281 179.777344 434.648438 179.65625 434.039062 C 179.535156 433.433594 179.472656 432.820312 179.472656 432.199219 C 179.472656 431.582031 179.535156 430.96875 179.65625 430.359375 C 179.777344 429.753906 179.953125 429.164062 180.191406 428.589844 C 180.429688 428.019531 180.71875 427.476562 181.0625 426.960938 C 181.40625 426.445312 181.796875 425.96875 182.234375 425.53125 C 182.671875 425.09375 183.148438 424.703125 183.664062 424.359375 C 184.179688 424.011719 184.722656 423.722656 185.292969 423.484375 C 185.867188 423.25 186.457031 423.070312 187.0625 422.949219 C 187.671875 422.828125 188.285156 422.769531 188.902344 422.769531 L 526.121094 422.769531 C 526.742188 422.769531 527.355469 422.828125 527.960938 422.949219 C 528.570312 423.070312 529.160156 423.25 529.730469 423.484375 C 530.304688 423.722656 530.847656 424.011719 531.359375 424.359375 C 531.875 424.703125 532.351562 425.09375 532.789062 425.53125 C 533.226562 425.96875 533.617188 426.445312 533.960938 426.960938 C 534.304688 427.476562 534.597656 428.019531 534.832031 428.589844 C 535.070312 429.164062 535.25 429.753906 535.371094 430.359375 C 535.492188 430.96875 535.550781 431.582031 535.550781 432.199219 C 535.550781 432.820312 535.492188 433.433594 535.371094 434.039062 C 535.25 434.648438 535.070312 435.238281 534.832031 435.808594 C 534.597656 436.382812 534.304688 436.925781 533.960938 437.441406 C 533.617188 437.957031 533.226562 438.429688 532.789062 438.871094 C 532.351562 439.308594 531.875 439.699219 531.359375 440.042969 C 530.847656 440.386719 530.304688 440.675781 529.730469 440.914062 C 529.160156 441.152344 528.570312 441.328125 527.960938 441.449219 C 527.355469 441.570312 526.742188 441.632812 526.121094 441.632812 Z M 526.121094 441.632812 " fill-opacity="1" fill-rule="nonzero"/></g><path fill="#c46937" d="M 300.953125 576.078125 L 421.621094 576.078125 L 421.621094 690.582031 L 300.953125 690.582031 Z M 300.953125 576.078125 " fill-opacity="1" fill-rule="nonzero"/><g clip-path="url(#7bd3db1063)"><path fill="#5e1235" d="M 421.621094 700.011719 L 300.976562 700.011719 C 300.355469 700.011719 299.742188 699.949219 299.136719 699.828125 C 298.53125 699.707031 297.941406 699.527344 297.367188 699.292969 C 296.796875 699.054688 296.253906 698.765625 295.738281 698.421875 C 295.226562 698.078125 294.75 697.6875 294.3125 697.25 C 293.875 696.8125 293.484375 696.335938 293.140625 695.820312 C 292.796875 695.304688 292.503906 694.761719 292.269531 694.191406 C 292.03125 693.617188 291.851562 693.03125 291.734375 692.421875 C 291.613281 691.816406 291.550781 691.203125 291.550781 690.582031 L 291.550781 576.078125 C 291.550781 575.460938 291.613281 574.847656 291.734375 574.238281 C 291.851562 573.632812 292.03125 573.042969 292.269531 572.472656 C 292.503906 571.898438 292.796875 571.355469 293.140625 570.84375 C 293.484375 570.328125 293.875 569.851562 294.3125 569.414062 C 294.75 568.976562 295.226562 568.585938 295.738281 568.242188 C 296.253906 567.898438 296.796875 567.605469 297.367188 567.371094 C 297.941406 567.132812 298.53125 566.953125 299.136719 566.832031 C 299.742188 566.714844 300.355469 566.652344 300.976562 566.652344 L 421.621094 566.652344 C 422.242188 566.652344 422.851562 566.714844 423.460938 566.832031 C 424.066406 566.953125 424.65625 567.132812 425.226562 567.371094 C 425.800781 567.605469 426.34375 567.898438 426.855469 568.242188 C 427.371094 568.585938 427.847656 568.976562 428.285156 569.414062 C 428.722656 569.851562 429.113281 570.328125 429.457031 570.84375 C 429.800781 571.355469 430.089844 571.898438 430.328125 572.472656 C 430.566406 573.042969 430.742188 573.632812 430.863281 574.238281 C 430.984375 574.847656 431.046875 575.460938 431.046875 576.078125 L 431.046875 690.582031 C 431.046875 691.203125 430.984375 691.816406 430.863281 692.421875 C 430.742188 693.03125 430.566406 693.617188 430.328125 694.191406 C 430.089844 694.761719 429.800781 695.304688 429.457031 695.820312 C 429.113281 696.335938 428.722656 696.8125 428.285156 697.25 C 427.847656 697.6875 427.371094 698.078125 426.855469 698.421875 C 426.34375 698.765625 425.800781 699.054688 425.226562 699.292969 C 424.65625 699.527344 424.066406 699.707031 423.460938 699.828125 C 422.851562 699.949219 422.242188 700.011719 421.621094 700.011719 Z M 310.386719 681.144531 L 412.199219 681.144531 L 412.199219 585.507812 L 310.378906 585.507812 Z M 310.386719 681.144531 " fill-opacity="1" fill-rule="nonzero"/></g><path fill="#5e1235" d="M 361.289062 695.433594 C 360.667969 695.433594 360.054688 695.371094 359.449219 695.25 C 358.84375 695.132812 358.253906 694.953125 357.679688 694.714844 C 357.109375 694.476562 356.566406 694.1875 356.050781 693.84375 C 355.539062 693.5 355.0625 693.109375 354.625 692.671875 C 354.1875 692.234375 353.796875 691.757812 353.453125 691.242188 C 353.109375 690.730469 352.816406 690.183594 352.582031 689.613281 C 352.34375 689.042969 352.164062 688.453125 352.046875 687.84375 C 351.925781 687.238281 351.863281 686.625 351.863281 686.007812 L 351.863281 576.078125 C 351.863281 575.460938 351.925781 574.847656 352.046875 574.238281 C 352.164062 573.632812 352.34375 573.042969 352.582031 572.46875 C 352.820312 571.898438 353.109375 571.355469 353.453125 570.839844 C 353.796875 570.324219 354.1875 569.847656 354.625 569.410156 C 355.0625 568.972656 355.539062 568.582031 356.054688 568.238281 C 356.570312 567.894531 357.113281 567.601562 357.683594 567.363281 C 358.257812 567.128906 358.847656 566.949219 359.453125 566.828125 C 360.0625 566.707031 360.675781 566.648438 361.292969 566.648438 C 361.914062 566.648438 362.527344 566.707031 363.132812 566.828125 C 363.738281 566.949219 364.328125 567.128906 364.902344 567.363281 C 365.472656 567.601562 366.015625 567.894531 366.53125 568.238281 C 367.046875 568.582031 367.523438 568.972656 367.960938 569.410156 C 368.398438 569.847656 368.789062 570.324219 369.132812 570.839844 C 369.476562 571.355469 369.769531 571.898438 370.003906 572.46875 C 370.242188 573.042969 370.421875 573.632812 370.542969 574.238281 C 370.660156 574.847656 370.722656 575.460938 370.722656 576.078125 L 370.722656 685.996094 C 370.722656 686.617188 370.664062 687.230469 370.542969 687.835938 C 370.421875 688.445312 370.242188 689.035156 370.007812 689.609375 C 369.769531 690.179688 369.480469 690.726562 369.136719 691.242188 C 368.792969 691.757812 368.402344 692.234375 367.960938 692.671875 C 367.523438 693.109375 367.046875 693.5 366.53125 693.847656 C 366.015625 694.191406 365.472656 694.480469 364.898438 694.71875 C 364.328125 694.953125 363.738281 695.132812 363.128906 695.253906 C 362.519531 695.375 361.90625 695.433594 361.289062 695.433594 Z M 361.289062 695.433594 " fill-opacity="1" fill-rule="nonzero"/><path fill="#3efffa" d="M 254.085938 340.007812 L 301.542969 340.007812 L 301.542969 387.480469 L 254.085938 387.480469 Z M 254.085938 340.007812 " fill-opacity="1" fill-rule="nonzero"/><path fill="#5e1235" d="M 301.542969 396.90625 L 254.128906 396.90625 C 253.511719 396.90625 252.898438 396.847656 252.289062 396.726562 C 251.683594 396.605469 251.09375 396.425781 250.523438 396.191406 C 249.949219 395.953125 249.40625 395.664062 248.894531 395.320312 C 248.378906 394.976562 247.902344 394.582031 247.464844 394.144531 C 247.027344 393.707031 246.636719 393.230469 246.292969 392.71875 C 245.949219 392.203125 245.660156 391.660156 245.421875 391.089844 C 245.183594 390.515625 245.007812 389.925781 244.886719 389.320312 C 244.765625 388.710938 244.703125 388.097656 244.703125 387.480469 L 244.703125 340.007812 C 244.703125 339.390625 244.765625 338.777344 244.882812 338.167969 C 245.003906 337.5625 245.183594 336.972656 245.417969 336.398438 C 245.65625 335.824219 245.945312 335.28125 246.289062 334.765625 C 246.632812 334.25 247.023438 333.773438 247.460938 333.335938 C 247.898438 332.898438 248.375 332.507812 248.890625 332.164062 C 249.40625 331.820312 249.949219 331.527344 250.519531 331.289062 C 251.09375 331.054688 251.679688 330.875 252.289062 330.753906 C 252.894531 330.632812 253.507812 330.570312 254.128906 330.570312 L 301.585938 330.570312 C 302.203125 330.570312 302.816406 330.632812 303.425781 330.753906 C 304.03125 330.875 304.621094 331.050781 305.191406 331.289062 C 305.761719 331.527344 306.304688 331.816406 306.820312 332.160156 C 307.335938 332.503906 307.8125 332.894531 308.25 333.332031 C 308.6875 333.769531 309.078125 334.246094 309.421875 334.761719 C 309.765625 335.277344 310.054688 335.820312 310.292969 336.390625 C 310.527344 336.960938 310.707031 337.550781 310.828125 338.160156 C 310.949219 338.765625 311.007812 339.378906 311.007812 340 L 311.007812 387.46875 C 311.011719 388.089844 310.949219 388.707031 310.828125 389.316406 C 310.707031 389.925781 310.527344 390.515625 310.289062 391.089844 C 310.054688 391.664062 309.761719 392.210938 309.414062 392.726562 C 309.070312 393.242188 308.675781 393.71875 308.238281 394.15625 C 307.796875 394.597656 307.320312 394.988281 306.800781 395.332031 C 306.285156 395.675781 305.738281 395.964844 305.164062 396.199219 C 304.589844 396.4375 303.996094 396.613281 303.386719 396.734375 C 302.777344 396.851562 302.164062 396.910156 301.542969 396.90625 Z M 263.519531 378.042969 L 292.117188 378.042969 L 292.117188 349.445312 L 263.519531 349.445312 Z M 263.519531 378.042969 " fill-opacity="1" fill-rule="nonzero"/><path fill="#3efffa" d="M 335.402344 340.007812 L 382.859375 340.007812 L 382.859375 387.480469 L 335.402344 387.480469 Z M 335.402344 340.007812 " fill-opacity="1" fill-rule="nonzero"/><path fill="#5e1235" d="M 382.859375 396.90625 L 335.402344 396.90625 C 334.785156 396.90625 334.171875 396.847656 333.5625 396.726562 C 332.957031 396.605469 332.367188 396.425781 331.796875 396.191406 C 331.222656 395.953125 330.679688 395.664062 330.167969 395.320312 C 329.652344 394.976562 329.175781 394.582031 328.738281 394.144531 C 328.300781 393.707031 327.910156 393.230469 327.566406 392.71875 C 327.222656 392.203125 326.933594 391.660156 326.695312 391.089844 C 326.457031 390.515625 326.28125 389.925781 326.160156 389.320312 C 326.039062 388.710938 325.976562 388.097656 325.976562 387.480469 L 325.976562 340.007812 C 325.976562 339.390625 326.039062 338.777344 326.15625 338.167969 C 326.277344 337.5625 326.457031 336.972656 326.691406 336.398438 C 326.929688 335.824219 327.21875 335.28125 327.5625 334.765625 C 327.90625 334.25 328.296875 333.773438 328.734375 333.335938 C 329.171875 332.898438 329.648438 332.507812 330.164062 332.164062 C 330.679688 331.820312 331.222656 331.527344 331.792969 331.289062 C 332.367188 331.054688 332.957031 330.875 333.5625 330.753906 C 334.167969 330.632812 334.78125 330.570312 335.402344 330.570312 L 382.859375 330.570312 C 383.476562 330.570312 384.089844 330.632812 384.699219 330.753906 C 385.304688 330.875 385.894531 331.050781 386.464844 331.289062 C 387.035156 331.527344 387.578125 331.816406 388.09375 332.160156 C 388.609375 332.503906 389.085938 332.894531 389.523438 333.332031 C 389.960938 333.769531 390.351562 334.246094 390.695312 334.761719 C 391.039062 335.277344 391.328125 335.820312 391.566406 336.390625 C 391.800781 336.960938 391.980469 337.550781 392.101562 338.160156 C 392.222656 338.765625 392.28125 339.378906 392.28125 340 L 392.28125 387.46875 C 392.285156 388.089844 392.222656 388.703125 392.105469 389.308594 C 391.984375 389.917969 391.804688 390.507812 391.570312 391.082031 C 391.332031 391.652344 391.042969 392.195312 390.699219 392.710938 C 390.355469 393.226562 389.964844 393.703125 389.527344 394.140625 C 389.089844 394.582031 388.613281 394.972656 388.097656 395.316406 C 387.582031 395.660156 387.039062 395.953125 386.46875 396.1875 C 385.894531 396.425781 385.304688 396.605469 384.699219 396.726562 C 384.089844 396.847656 383.476562 396.90625 382.859375 396.90625 Z M 344.835938 378.042969 L 373.433594 378.042969 L 373.433594 349.445312 L 344.824219 349.445312 Z M 344.835938 378.042969 " fill-opacity="1" fill-rule="nonzero"/><path fill="#3efffa" d="M 416.71875 340.007812 L 464.175781 340.007812 L 464.175781 387.480469 L 416.71875 387.480469 Z M 416.71875 340.007812 " fill-opacity="1" fill-rule="nonzero"/><path fill="#5e1235" d="M 464.175781 396.90625 L 416.71875 396.90625 C 416.101562 396.90625 415.488281 396.847656 414.878906 396.726562 C 414.273438 396.605469 413.683594 396.425781 413.113281 396.191406 C 412.542969 395.953125 412 395.664062 411.484375 395.320312 C 410.96875 394.976562 410.492188 394.582031 410.054688 394.144531 C 409.617188 393.707031 409.226562 393.230469 408.882812 392.71875 C 408.539062 392.203125 408.25 391.660156 408.011719 391.089844 C 407.777344 390.515625 407.597656 389.925781 407.476562 389.320312 C 407.355469 388.710938 407.296875 388.097656 407.296875 387.480469 L 407.296875 340.007812 C 407.296875 339.390625 407.355469 338.777344 407.476562 338.171875 C 407.597656 337.5625 407.777344 336.972656 408.011719 336.402344 C 408.25 335.832031 408.539062 335.285156 408.882812 334.773438 C 409.226562 334.257812 409.617188 333.78125 410.054688 333.34375 C 410.492188 332.90625 410.96875 332.515625 411.484375 332.171875 C 412 331.828125 412.542969 331.539062 413.113281 331.300781 C 413.683594 331.0625 414.273438 330.882812 414.878906 330.765625 C 415.488281 330.644531 416.101562 330.582031 416.71875 330.582031 L 464.175781 330.582031 C 464.792969 330.582031 465.40625 330.644531 466.015625 330.765625 C 466.621094 330.882812 467.210938 331.0625 467.78125 331.300781 C 468.355469 331.539062 468.898438 331.828125 469.410156 332.171875 C 469.925781 332.515625 470.402344 332.90625 470.839844 333.34375 C 471.277344 333.78125 471.667969 334.257812 472.011719 334.773438 C 472.355469 335.285156 472.644531 335.832031 472.882812 336.402344 C 473.121094 336.972656 473.296875 337.5625 473.417969 338.171875 C 473.539062 338.777344 473.601562 339.390625 473.601562 340.007812 L 473.601562 387.480469 C 473.601562 388.097656 473.539062 388.710938 473.417969 389.320312 C 473.296875 389.925781 473.121094 390.515625 472.882812 391.089844 C 472.644531 391.660156 472.355469 392.203125 472.011719 392.71875 C 471.667969 393.230469 471.277344 393.707031 470.839844 394.144531 C 470.402344 394.582031 469.925781 394.976562 469.410156 395.320312 C 468.898438 395.664062 468.355469 395.953125 467.78125 396.191406 C 467.210938 396.425781 466.621094 396.605469 466.015625 396.726562 C 465.40625 396.847656 464.792969 396.90625 464.175781 396.90625 Z M 426.152344 378.042969 L 454.753906 378.042969 L 454.753906 349.445312 L 426.144531 349.445312 Z M 426.152344 378.042969 " fill-opacity="1" fill-rule="nonzero"/><path fill="#3efffa" d="M 254.085938 477.683594 L 301.542969 477.683594 L 301.542969 525.152344 L 254.085938 525.152344 Z M 254.085938 477.683594 " fill-opacity="1" fill-rule="nonzero"/><path fill="#5e1235" d="M 301.542969 534.582031 L 254.128906 534.582031 C 253.511719 534.582031 252.898438 534.519531 252.289062 534.398438 C 251.683594 534.277344 251.09375 534.097656 250.523438 533.863281 C 249.949219 533.625 249.40625 533.335938 248.894531 532.992188 C 248.378906 532.648438 247.902344 532.257812 247.464844 531.820312 C 247.027344 531.382812 246.636719 530.90625 246.292969 530.390625 C 245.949219 529.875 245.660156 529.332031 245.421875 528.761719 C 245.183594 528.1875 245.007812 527.597656 244.886719 526.992188 C 244.765625 526.386719 244.703125 525.773438 244.703125 525.152344 L 244.703125 477.691406 C 244.703125 477.074219 244.765625 476.460938 244.886719 475.855469 C 245.007812 475.246094 245.183594 474.65625 245.421875 474.085938 C 245.660156 473.515625 245.949219 472.972656 246.292969 472.457031 C 246.636719 471.941406 247.027344 471.464844 247.464844 471.027344 C 247.902344 470.589844 248.378906 470.199219 248.894531 469.855469 C 249.40625 469.511719 249.949219 469.222656 250.523438 468.984375 C 251.09375 468.746094 251.683594 468.570312 252.289062 468.449219 C 252.898438 468.328125 253.511719 468.265625 254.128906 468.265625 L 301.585938 468.265625 C 302.203125 468.265625 302.816406 468.328125 303.425781 468.449219 C 304.03125 468.570312 304.621094 468.746094 305.191406 468.984375 C 305.761719 469.222656 306.304688 469.511719 306.820312 469.855469 C 307.335938 470.199219 307.8125 470.589844 308.25 471.027344 C 308.6875 471.464844 309.078125 471.941406 309.421875 472.457031 C 309.765625 472.972656 310.054688 473.515625 310.292969 474.085938 C 310.527344 474.65625 310.707031 475.246094 310.828125 475.855469 C 310.949219 476.460938 311.007812 477.074219 311.007812 477.691406 L 311.007812 525.164062 C 311.007812 525.785156 310.945312 526.398438 310.824219 527.007812 C 310.703125 527.617188 310.523438 528.207031 310.285156 528.777344 C 310.046875 529.351562 309.753906 529.894531 309.410156 530.410156 C 309.0625 530.925781 308.667969 531.402344 308.230469 531.839844 C 307.789062 532.277344 307.3125 532.667969 306.796875 533.007812 C 306.277344 533.351562 305.734375 533.640625 305.160156 533.875 C 304.585938 534.113281 303.992188 534.289062 303.386719 534.40625 C 302.777344 534.523438 302.160156 534.582031 301.542969 534.582031 Z M 263.519531 515.714844 L 292.117188 515.714844 L 292.117188 487.121094 L 263.519531 487.121094 Z M 263.519531 515.714844 " fill-opacity="1" fill-rule="nonzero"/><path fill="#3efffa" d="M 335.402344 477.683594 L 382.859375 477.683594 L 382.859375 525.152344 L 335.402344 525.152344 Z M 335.402344 477.683594 " fill-opacity="1" fill-rule="nonzero"/><path fill="#5e1235" d="M 382.859375 534.582031 L 335.402344 534.582031 C 334.785156 534.582031 334.171875 534.519531 333.5625 534.398438 C 332.957031 534.277344 332.367188 534.097656 331.796875 533.863281 C 331.222656 533.625 330.679688 533.335938 330.167969 532.992188 C 329.652344 532.648438 329.175781 532.257812 328.738281 531.820312 C 328.300781 531.382812 327.910156 530.90625 327.566406 530.390625 C 327.222656 529.875 326.933594 529.332031 326.695312 528.761719 C 326.457031 528.1875 326.28125 527.601562 326.160156 526.992188 C 326.039062 526.386719 325.976562 525.773438 325.976562 525.152344 L 325.976562 477.691406 C 325.976562 477.074219 326.039062 476.460938 326.160156 475.855469 C 326.28125 475.246094 326.457031 474.65625 326.695312 474.085938 C 326.933594 473.515625 327.222656 472.972656 327.566406 472.457031 C 327.910156 471.941406 328.300781 471.464844 328.738281 471.027344 C 329.175781 470.589844 329.652344 470.199219 330.167969 469.855469 C 330.679688 469.511719 331.222656 469.222656 331.796875 468.984375 C 332.367188 468.746094 332.957031 468.570312 333.5625 468.449219 C 334.171875 468.328125 334.785156 468.265625 335.402344 468.265625 L 382.859375 468.265625 C 383.476562 468.265625 384.089844 468.328125 384.699219 468.449219 C 385.304688 468.570312 385.894531 468.746094 386.464844 468.984375 C 387.035156 469.222656 387.578125 469.511719 388.09375 469.855469 C 388.609375 470.199219 389.085938 470.589844 389.523438 471.027344 C 389.960938 471.464844 390.351562 471.941406 390.695312 472.457031 C 391.039062 472.972656 391.328125 473.515625 391.566406 474.085938 C 391.800781 474.65625 391.980469 475.246094 392.101562 475.855469 C 392.222656 476.460938 392.28125 477.074219 392.28125 477.691406 L 392.28125 525.164062 C 392.28125 525.78125 392.222656 526.394531 392.101562 527 C 391.980469 527.609375 391.800781 528.199219 391.5625 528.769531 C 391.324219 529.339844 391.035156 529.882812 390.691406 530.394531 C 390.347656 530.910156 389.957031 531.386719 389.519531 531.824219 C 389.082031 532.261719 388.605469 532.652344 388.089844 532.992188 C 387.578125 533.335938 387.035156 533.628906 386.460938 533.863281 C 385.890625 534.101562 385.300781 534.277344 384.695312 534.398438 C 384.089844 534.519531 383.476562 534.582031 382.859375 534.582031 Z M 344.835938 515.714844 L 373.433594 515.714844 L 373.433594 487.121094 L 344.824219 487.121094 Z M 344.835938 515.714844 " fill-opacity="1" fill-rule="nonzero"/><path fill="#3efffa" d="M 416.71875 477.683594 L 464.175781 477.683594 L 464.175781 525.152344 L 416.71875 525.152344 Z M 416.71875 477.683594 " fill-opacity="1" fill-rule="nonzero"/><path fill="#5e1235" d="M 464.175781 534.582031 L 416.71875 534.582031 C 416.101562 534.582031 415.488281 534.519531 414.878906 534.398438 C 414.273438 534.277344 413.683594 534.097656 413.113281 533.863281 C 412.542969 533.625 412 533.335938 411.484375 532.992188 C 410.96875 532.648438 410.492188 532.257812 410.054688 531.820312 C 409.617188 531.382812 409.226562 530.90625 408.882812 530.390625 C 408.539062 529.875 408.25 529.332031 408.011719 528.761719 C 407.777344 528.1875 407.597656 527.597656 407.476562 526.992188 C 407.355469 526.386719 407.296875 525.773438 407.296875 525.152344 L 407.296875 477.691406 C 407.296875 477.074219 407.355469 476.460938 407.476562 475.855469 C 407.597656 475.246094 407.777344 474.65625 408.011719 474.085938 C 408.25 473.515625 408.539062 472.972656 408.882812 472.457031 C 409.226562 471.941406 409.617188 471.464844 410.054688 471.027344 C 410.492188 470.589844 410.96875 470.199219 411.484375 469.855469 C 412 469.511719 412.542969 469.222656 413.113281 468.984375 C 413.683594 468.746094 414.273438 468.570312 414.878906 468.449219 C 415.488281 468.328125 416.101562 468.265625 416.71875 468.265625 L 464.175781 468.265625 C 464.792969 468.265625 465.40625 468.328125 466.015625 468.449219 C 466.621094 468.570312 467.210938 468.746094 467.78125 468.984375 C 468.355469 469.222656 468.898438 469.511719 469.410156 469.855469 C 469.925781 470.199219 470.402344 470.589844 470.839844 471.027344 C 471.277344 471.464844 471.667969 471.941406 472.011719 472.457031 C 472.355469 472.972656 472.644531 473.515625 472.882812 474.085938 C 473.121094 474.65625 473.296875 475.246094 473.417969 475.855469 C 473.539062 476.460938 473.601562 477.074219 473.601562 477.691406 L 473.601562 525.164062 C 473.597656 525.78125 473.539062 526.394531 473.417969 527 C 473.296875 527.609375 473.117188 528.195312 472.878906 528.769531 C 472.640625 529.339844 472.351562 529.882812 472.007812 530.394531 C 471.664062 530.910156 471.273438 531.386719 470.835938 531.824219 C 470.398438 532.261719 469.921875 532.652344 469.40625 532.992188 C 468.894531 533.335938 468.351562 533.628906 467.78125 533.863281 C 467.207031 534.101562 466.621094 534.277344 466.011719 534.398438 C 465.40625 534.519531 464.792969 534.582031 464.175781 534.582031 Z M 426.152344 515.714844 L 454.753906 515.714844 L 454.753906 487.121094 L 426.144531 487.121094 Z M 426.152344 515.714844 " fill-opacity="1" fill-rule="nonzero"/><path fill="#3efffa" d="M 254.085938 199.917969 L 301.542969 199.917969 L 301.542969 247.386719 L 254.085938 247.386719 Z M 254.085938 199.917969 " fill-opacity="1" fill-rule="nonzero"/><path fill="#5e1235" d="M 301.542969 256.816406 L 254.128906 256.816406 C 253.511719 256.816406 252.898438 256.753906 252.289062 256.632812 C 251.683594 256.511719 251.09375 256.335938 250.523438 256.097656 C 249.949219 255.859375 249.40625 255.570312 248.894531 255.226562 C 248.378906 254.882812 247.902344 254.492188 247.464844 254.054688 C 247.027344 253.617188 246.636719 253.140625 246.292969 252.625 C 245.949219 252.109375 245.660156 251.566406 245.421875 250.996094 C 245.183594 250.421875 245.007812 249.835938 244.886719 249.226562 C 244.765625 248.621094 244.703125 248.007812 244.703125 247.386719 L 244.703125 199.917969 C 244.703125 199.296875 244.765625 198.683594 244.882812 198.078125 C 245.003906 197.46875 245.183594 196.878906 245.417969 196.304688 C 245.65625 195.734375 245.945312 195.191406 246.289062 194.675781 C 246.632812 194.160156 247.023438 193.683594 247.460938 193.246094 C 247.898438 192.804688 248.375 192.414062 248.890625 192.070312 C 249.40625 191.726562 249.949219 191.433594 250.519531 191.199219 C 251.09375 190.960938 251.679688 190.78125 252.289062 190.660156 C 252.894531 190.539062 253.507812 190.480469 254.128906 190.480469 L 301.585938 190.480469 C 302.203125 190.480469 302.816406 190.539062 303.425781 190.660156 C 304.03125 190.78125 304.621094 190.960938 305.191406 191.195312 C 305.761719 191.433594 306.304688 191.722656 306.820312 192.066406 C 307.335938 192.410156 307.8125 192.804688 308.25 193.242188 C 308.6875 193.679688 309.078125 194.15625 309.421875 194.667969 C 309.765625 195.183594 310.054688 195.726562 310.292969 196.296875 C 310.527344 196.871094 310.707031 197.460938 310.828125 198.066406 C 310.949219 198.675781 311.007812 199.289062 311.007812 199.90625 L 311.007812 247.378906 C 311.011719 248 310.949219 248.613281 310.828125 249.222656 C 310.707031 249.832031 310.527344 250.425781 310.289062 251 C 310.054688 251.570312 309.761719 252.117188 309.414062 252.632812 C 309.070312 253.148438 308.675781 253.628906 308.238281 254.066406 C 307.796875 254.503906 307.320312 254.894531 306.800781 255.238281 C 306.285156 255.582031 305.738281 255.871094 305.164062 256.109375 C 304.589844 256.34375 303.996094 256.523438 303.386719 256.640625 C 302.777344 256.761719 302.164062 256.816406 301.542969 256.816406 Z M 263.519531 237.941406 L 292.117188 237.941406 L 292.117188 209.34375 L 263.519531 209.34375 Z M 263.519531 237.941406 " fill-opacity="1" fill-rule="nonzero"/><path fill="#3efffa" d="M 335.402344 199.917969 L 382.859375 199.917969 L 382.859375 247.386719 L 335.402344 247.386719 Z M 335.402344 199.917969 " fill-opacity="1" fill-rule="nonzero"/><path fill="#5e1235" d="M 382.859375 256.816406 L 335.402344 256.816406 C 334.785156 256.816406 334.171875 256.753906 333.5625 256.632812 C 332.957031 256.511719 332.367188 256.335938 331.796875 256.097656 C 331.222656 255.859375 330.679688 255.570312 330.167969 255.226562 C 329.652344 254.882812 329.175781 254.492188 328.738281 254.054688 C 328.300781 253.617188 327.910156 253.140625 327.566406 252.625 C 327.222656 252.109375 326.933594 251.566406 326.695312 250.996094 C 326.457031 250.421875 326.28125 249.835938 326.160156 249.226562 C 326.039062 248.621094 325.976562 248.007812 325.976562 247.386719 L 325.976562 199.917969 C 325.976562 199.296875 326.039062 198.683594 326.160156 198.078125 C 326.28125 197.472656 326.457031 196.882812 326.695312 196.308594 C 326.933594 195.738281 327.222656 195.195312 327.566406 194.679688 C 327.910156 194.164062 328.300781 193.6875 328.738281 193.25 C 329.175781 192.8125 329.652344 192.421875 330.167969 192.078125 C 330.679688 191.734375 331.222656 191.445312 331.796875 191.207031 C 332.367188 190.972656 332.957031 190.792969 333.5625 190.671875 C 334.171875 190.550781 334.785156 190.492188 335.402344 190.492188 L 382.859375 190.492188 C 383.476562 190.492188 384.089844 190.550781 384.699219 190.671875 C 385.304688 190.792969 385.894531 190.972656 386.464844 191.207031 C 387.035156 191.445312 387.578125 191.734375 388.09375 192.078125 C 388.609375 192.421875 389.085938 192.8125 389.523438 193.25 C 389.960938 193.6875 390.351562 194.164062 390.695312 194.679688 C 391.039062 195.195312 391.328125 195.738281 391.566406 196.308594 C 391.800781 196.882812 391.980469 197.472656 392.101562 198.078125 C 392.222656 198.683594 392.28125 199.296875 392.28125 199.917969 L 392.28125 247.378906 C 392.285156 247.996094 392.222656 248.609375 392.105469 249.21875 C 391.984375 249.824219 391.804688 250.414062 391.570312 250.988281 C 391.332031 251.5625 391.042969 252.105469 390.699219 252.621094 C 390.355469 253.136719 389.964844 253.613281 389.527344 254.050781 C 389.089844 254.488281 388.613281 254.878906 388.097656 255.222656 C 387.582031 255.566406 387.039062 255.859375 386.46875 256.097656 C 385.894531 256.332031 385.304688 256.511719 384.699219 256.632812 C 384.089844 256.753906 383.476562 256.816406 382.859375 256.816406 Z M 344.824219 237.941406 L 373.425781 237.941406 L 373.425781 209.34375 L 344.824219 209.34375 Z M 344.824219 237.941406 " fill-opacity="1" fill-rule="nonzero"/><path fill="#3efffa" d="M 416.71875 199.917969 L 464.175781 199.917969 L 464.175781 247.386719 L 416.71875 247.386719 Z M 416.71875 199.917969 " fill-opacity="1" fill-rule="nonzero"/><path fill="#5e1235" d="M 464.175781 256.816406 L 416.71875 256.816406 C 416.101562 256.816406 415.488281 256.753906 414.878906 256.632812 C 414.273438 256.511719 413.683594 256.335938 413.113281 256.097656 C 412.542969 255.859375 412 255.570312 411.484375 255.226562 C 410.96875 254.882812 410.492188 254.492188 410.054688 254.054688 C 409.617188 253.617188 409.226562 253.140625 408.882812 252.625 C 408.539062 252.109375 408.25 251.566406 408.011719 250.996094 C 407.777344 250.421875 407.597656 249.835938 407.476562 249.226562 C 407.355469 248.621094 407.296875 248.007812 407.296875 247.386719 L 407.296875 199.917969 C 407.296875 199.296875 407.355469 198.683594 407.476562 198.078125 C 407.597656 197.472656 407.777344 196.882812 408.011719 196.308594 C 408.25 195.738281 408.539062 195.195312 408.882812 194.679688 C 409.226562 194.164062 409.617188 193.6875 410.054688 193.25 C 410.492188 192.8125 410.96875 192.421875 411.484375 192.078125 C 412 191.734375 412.542969 191.445312 413.113281 191.207031 C 413.683594 190.972656 414.273438 190.792969 414.878906 190.671875 C 415.488281 190.550781 416.101562 190.492188 416.71875 190.492188 L 464.175781 190.492188 C 464.792969 190.492188 465.40625 190.550781 466.015625 190.671875 C 466.621094 190.792969 467.210938 190.972656 467.78125 191.207031 C 468.355469 191.445312 468.898438 191.734375 469.410156 192.078125 C 469.925781 192.421875 470.402344 192.8125 470.839844 193.25 C 471.277344 193.6875 471.667969 194.164062 472.011719 194.679688 C 472.355469 195.195312 472.644531 195.738281 472.882812 196.308594 C 473.121094 196.882812 473.296875 197.472656 473.417969 198.078125 C 473.539062 198.683594 473.601562 199.296875 473.601562 199.917969 L 473.601562 247.378906 C 473.601562 247.996094 473.539062 248.609375 473.421875 249.21875 C 473.300781 249.824219 473.121094 250.414062 472.886719 250.988281 C 472.648438 251.5625 472.359375 252.105469 472.015625 252.621094 C 471.671875 253.136719 471.28125 253.613281 470.84375 254.050781 C 470.40625 254.488281 469.929688 254.878906 469.414062 255.222656 C 468.898438 255.566406 468.355469 255.859375 467.785156 256.097656 C 467.210938 256.332031 466.625 256.511719 466.015625 256.632812 C 465.410156 256.753906 464.796875 256.816406 464.175781 256.816406 Z M 426.144531 237.941406 L 454.742188 237.941406 L 454.742188 209.34375 L 426.144531 209.34375 Z M 426.144531 237.941406 " fill-opacity="1" fill-rule="nonzero"/><path fill="#5e1235" d="M 440.425781 585.507812 L 282.640625 585.507812 C 282.019531 585.507812 281.40625 585.445312 280.800781 585.324219 C 280.191406 585.203125 279.601562 585.023438 279.03125 584.789062 C 278.460938 584.550781 277.914062 584.261719 277.402344 583.917969 C 276.886719 583.574219 276.410156 583.179688 275.972656 582.742188 C 275.535156 582.304688 275.144531 581.828125 274.800781 581.3125 C 274.457031 580.800781 274.164062 580.253906 273.929688 579.683594 C 273.691406 579.109375 273.511719 578.519531 273.390625 577.914062 C 273.269531 577.304688 273.210938 576.691406 273.210938 576.074219 C 273.210938 575.453125 273.269531 574.839844 273.390625 574.234375 C 273.511719 573.625 273.691406 573.035156 273.929688 572.464844 C 274.164062 571.890625 274.457031 571.347656 274.800781 570.832031 C 275.144531 570.320312 275.535156 569.84375 275.972656 569.40625 C 276.410156 568.964844 276.886719 568.574219 277.402344 568.230469 C 277.914062 567.886719 278.460938 567.597656 279.03125 567.359375 C 279.601562 567.121094 280.191406 566.945312 280.800781 566.824219 C 281.40625 566.703125 282.019531 566.640625 282.640625 566.640625 L 440.425781 566.640625 C 441.046875 566.640625 441.65625 566.703125 442.265625 566.824219 C 442.871094 566.945312 443.460938 567.121094 444.035156 567.359375 C 444.605469 567.597656 445.148438 567.886719 445.664062 568.230469 C 446.179688 568.574219 446.65625 568.964844 447.09375 569.40625 C 447.53125 569.84375 447.921875 570.320312 448.265625 570.832031 C 448.609375 571.347656 448.898438 571.890625 449.136719 572.464844 C 449.375 573.035156 449.554688 573.625 449.675781 574.234375 C 449.792969 574.839844 449.855469 575.453125 449.855469 576.074219 C 449.855469 576.691406 449.792969 577.304688 449.675781 577.914062 C 449.554688 578.519531 449.375 579.109375 449.136719 579.683594 C 448.898438 580.253906 448.609375 580.800781 448.265625 581.3125 C 447.921875 581.828125 447.53125 582.304688 447.09375 582.742188 C 446.65625 583.179688 446.179688 583.574219 445.664062 583.917969 C 445.148438 584.261719 444.605469 584.550781 444.035156 584.789062 C 443.460938 585.023438 442.871094 585.203125 442.265625 585.324219 C 441.65625 585.445312 441.046875 585.507812 440.425781 585.507812 Z M 440.425781 585.507812 " fill-opacity="1" fill-rule="nonzero"/><path fill="#38a838" d="M 146.96875 502.167969 C 147.535156 501.359375 148.0625 500.527344 148.550781 499.667969 C 149.039062 498.808594 149.488281 497.933594 149.898438 497.035156 C 150.308594 496.132812 150.675781 495.21875 151 494.285156 C 151.328125 493.355469 151.609375 492.410156 151.851562 491.453125 C 152.089844 490.492188 152.289062 489.527344 152.441406 488.550781 C 152.59375 487.574219 152.699219 486.59375 152.765625 485.609375 C 152.828125 484.625 152.847656 483.636719 152.820312 482.652344 C 152.792969 481.664062 152.722656 480.679688 152.605469 479.699219 C 152.492188 478.71875 152.332031 477.742188 152.125 476.777344 C 151.921875 475.8125 151.675781 474.855469 151.382812 473.914062 C 151.09375 472.96875 150.757812 472.039062 150.382812 471.128906 C 150.007812 470.214844 149.59375 469.320312 149.136719 468.445312 C 148.679688 467.566406 148.183594 466.714844 147.648438 465.882812 C 147.117188 465.054688 146.546875 464.25 145.9375 463.46875 C 145.332031 462.691406 144.691406 461.941406 144.015625 461.222656 C 143.339844 460.5 142.632812 459.8125 141.894531 459.15625 C 141.15625 458.5 140.390625 457.878906 139.597656 457.292969 C 138.800781 456.707031 137.980469 456.15625 137.136719 455.644531 C 136.292969 455.132812 135.429688 454.660156 134.539062 454.226562 C 133.652344 453.792969 132.75 453.402344 131.824219 453.050781 C 130.902344 452.699219 129.964844 452.390625 129.015625 452.125 C 128.066406 451.859375 127.105469 451.636719 126.132812 451.460938 C 125.160156 451.28125 124.183594 451.148438 123.199219 451.058594 C 122.21875 450.96875 121.234375 450.921875 120.246094 450.921875 C 119.257812 450.921875 118.273438 450.96875 117.289062 451.058594 C 116.304688 451.148438 115.328125 451.28125 114.359375 451.460938 C 113.386719 451.636719 112.425781 451.859375 111.476562 452.125 C 110.523438 452.390625 109.585938 452.699219 108.664062 453.050781 C 107.742188 453.402344 106.835938 453.792969 105.949219 454.226562 C 105.0625 454.660156 104.195312 455.132812 103.351562 455.644531 C 102.507812 456.15625 101.6875 456.707031 100.894531 457.292969 C 100.101562 457.878906 99.335938 458.5 98.597656 459.15625 C 97.859375 459.8125 97.152344 460.5 96.476562 461.222656 C 95.800781 461.941406 95.160156 462.691406 94.550781 463.46875 C 93.945312 464.25 93.375 465.054688 92.839844 465.882812 C 92.304688 466.714844 91.8125 467.566406 91.355469 468.445312 C 90.898438 469.320312 90.480469 470.214844 90.105469 471.128906 C 89.730469 472.039062 89.398438 472.96875 89.105469 473.914062 C 88.816406 474.855469 88.570312 475.8125 88.363281 476.777344 C 88.160156 477.742188 88 478.71875 87.882812 479.699219 C 87.769531 480.679688 87.699219 481.664062 87.671875 482.652344 C 87.644531 483.636719 87.664062 484.625 87.726562 485.609375 C 87.789062 486.59375 87.898438 487.574219 88.050781 488.550781 C 88.203125 489.527344 88.398438 490.492188 88.640625 491.453125 C 88.878906 492.410156 89.164062 493.355469 89.488281 494.285156 C 89.816406 495.21875 90.183594 496.132812 90.59375 497.035156 C 91 497.933594 91.449219 498.808594 91.941406 499.667969 C 92.429688 500.527344 92.957031 501.359375 93.519531 502.167969 C 92.851562 502.640625 92.191406 503.128906 91.546875 503.632812 C 90.902344 504.136719 90.269531 504.65625 89.652344 505.195312 C 89.035156 505.734375 88.429688 506.289062 87.84375 506.855469 C 87.253906 507.425781 86.679688 508.011719 86.121094 508.613281 C 85.566406 509.210938 85.023438 509.828125 84.496094 510.453125 C 83.972656 511.082031 83.464844 511.726562 82.972656 512.382812 C 82.480469 513.035156 82.007812 513.703125 81.550781 514.382812 C 81.09375 515.066406 80.65625 515.757812 80.234375 516.460938 C 79.816406 517.164062 79.414062 517.878906 79.03125 518.601562 C 78.652344 519.328125 78.289062 520.0625 77.945312 520.804688 C 77.601562 521.550781 77.277344 522.300781 76.972656 523.0625 C 76.667969 523.824219 76.386719 524.59375 76.121094 525.367188 C 75.859375 526.144531 75.617188 526.925781 75.394531 527.714844 C 75.171875 528.503906 74.972656 529.296875 74.792969 530.097656 C 74.609375 530.894531 74.453125 531.699219 74.3125 532.507812 C 74.175781 533.316406 74.058594 534.125 73.964844 534.9375 C 73.871094 535.753906 73.796875 536.570312 73.742188 537.386719 C 73.691406 538.203125 73.660156 539.023438 73.652344 539.84375 C 73.644531 540.660156 73.65625 541.480469 73.691406 542.300781 C 73.722656 543.117188 73.78125 543.933594 73.855469 544.75 C 73.933594 545.566406 74.035156 546.378906 74.152344 547.191406 C 74.273438 548 74.414062 548.808594 74.578125 549.609375 C 74.742188 550.414062 74.925781 551.210938 75.128906 552.003906 C 75.332031 552.796875 75.558594 553.585938 75.804688 554.367188 C 76.050781 555.148438 76.320312 555.921875 76.605469 556.691406 C 76.894531 557.457031 77.199219 558.21875 77.527344 558.96875 C 77.855469 559.71875 78.199219 560.460938 78.566406 561.195312 C 78.933594 561.925781 79.320312 562.648438 79.722656 563.363281 C 80.128906 564.074219 80.550781 564.777344 80.992188 565.464844 C 81.433594 566.15625 81.890625 566.835938 82.371094 567.5 C 82.847656 568.167969 83.339844 568.820312 83.851562 569.460938 C 84.363281 570.101562 84.890625 570.726562 85.4375 571.335938 C 85.980469 571.949219 86.542969 572.546875 87.117188 573.128906 C 87.691406 573.710938 88.285156 574.277344 88.890625 574.832031 C 89.496094 575.382812 90.117188 575.917969 90.75 576.4375 C 91.382812 576.953125 92.03125 577.457031 92.691406 577.941406 C 93.351562 578.425781 94.027344 578.890625 94.710938 579.339844 C 95.394531 579.789062 96.09375 580.21875 96.800781 580.632812 C 97.507812 581.042969 98.226562 581.4375 98.953125 581.8125 C 99.683594 582.1875 100.421875 582.542969 101.167969 582.878906 C 101.917969 583.210938 102.671875 583.527344 103.4375 583.824219 C 104.199219 584.121094 104.972656 584.394531 105.75 584.648438 C 106.527344 584.90625 107.3125 585.136719 108.101562 585.351562 C 108.894531 585.566406 109.691406 585.757812 110.492188 585.929688 C 111.292969 586.101562 112.097656 586.25 112.90625 586.378906 C 113.714844 586.507812 114.527344 586.617188 115.339844 586.703125 C 116.15625 586.789062 116.972656 586.855469 117.789062 586.898438 C 118.609375 586.941406 119.425781 586.960938 120.246094 586.960938 C 121.066406 586.960938 121.882812 586.941406 122.699219 586.898438 C 123.519531 586.855469 124.335938 586.789062 125.148438 586.703125 C 125.964844 586.617188 126.777344 586.507812 127.585938 586.378906 C 128.394531 586.25 129.199219 586.101562 130 585.929688 C 130.800781 585.757812 131.597656 585.566406 132.386719 585.351562 C 133.179688 585.136719 133.960938 584.90625 134.742188 584.648438 C 135.519531 584.394531 136.289062 584.121094 137.054688 583.824219 C 137.820312 583.527344 138.574219 583.210938 139.320312 582.878906 C 140.070312 582.542969 140.808594 582.1875 141.535156 581.8125 C 142.265625 581.4375 142.984375 581.042969 143.691406 580.632812 C 144.398438 580.21875 145.09375 579.789062 145.78125 579.339844 C 146.464844 578.890625 147.136719 578.425781 147.796875 577.941406 C 148.460938 577.457031 149.105469 576.953125 149.742188 576.4375 C 150.375 575.917969 150.996094 575.382812 151.601562 574.832031 C 152.207031 574.277344 152.796875 573.710938 153.375 573.128906 C 153.949219 572.546875 154.511719 571.949219 155.054688 571.335938 C 155.597656 570.726562 156.125 570.101562 156.636719 569.460938 C 157.148438 568.820312 157.644531 568.167969 158.121094 567.5 C 158.597656 566.835938 159.058594 566.15625 159.5 565.464844 C 159.941406 564.777344 160.363281 564.074219 160.769531 563.363281 C 161.171875 562.648438 161.558594 561.925781 161.921875 561.195312 C 162.289062 560.460938 162.636719 559.71875 162.964844 558.96875 C 163.289062 558.21875 163.597656 557.457031 163.886719 556.691406 C 164.171875 555.921875 164.4375 555.148438 164.683594 554.367188 C 164.929688 553.585938 165.15625 552.796875 165.363281 552.003906 C 165.566406 551.210938 165.75 550.414062 165.914062 549.609375 C 166.074219 548.808594 166.21875 548 166.335938 547.191406 C 166.457031 546.378906 166.554688 545.566406 166.632812 544.75 C 166.710938 543.933594 166.765625 543.117188 166.800781 542.300781 C 166.835938 541.480469 166.847656 540.660156 166.839844 539.84375 C 166.828125 539.023438 166.800781 538.203125 166.746094 537.386719 C 166.695312 536.570312 166.621094 535.753906 166.527344 534.9375 C 166.429688 534.125 166.316406 533.316406 166.175781 532.507812 C 166.039062 531.699219 165.878906 530.894531 165.699219 530.097656 C 165.519531 529.296875 165.316406 528.503906 165.097656 527.714844 C 164.875 526.925781 164.632812 526.144531 164.367188 525.367188 C 164.105469 524.59375 163.820312 523.824219 163.515625 523.0625 C 163.214844 522.300781 162.890625 521.550781 162.546875 520.804688 C 162.203125 520.0625 161.839844 519.328125 161.457031 518.601562 C 161.074219 517.878906 160.675781 517.164062 160.253906 516.460938 C 159.835938 515.757812 159.398438 515.066406 158.941406 514.382812 C 158.484375 513.703125 158.011719 513.035156 157.519531 512.382812 C 157.027344 511.726562 156.519531 511.082031 155.992188 510.453125 C 155.46875 509.828125 154.925781 509.210938 154.367188 508.613281 C 153.808594 508.011719 153.238281 507.425781 152.648438 506.855469 C 152.058594 506.289062 151.457031 505.734375 150.839844 505.195312 C 150.222656 504.65625 149.589844 504.136719 148.945312 503.632812 C 148.300781 503.128906 147.640625 502.640625 146.96875 502.167969 Z M 146.96875 502.167969 " fill-opacity="1" fill-rule="nonzero"/><path fill="#5e1235" d="M 120.246094 596.394531 C 118.855469 596.394531 117.46875 596.339844 116.085938 596.238281 C 114.699219 596.136719 113.320312 595.980469 111.949219 595.773438 C 110.574219 595.570312 109.210938 595.3125 107.855469 595.003906 C 106.503906 594.699219 105.164062 594.339844 103.835938 593.933594 C 102.507812 593.527344 101.195312 593.070312 99.902344 592.566406 C 98.609375 592.0625 97.335938 591.511719 96.082031 590.910156 C 94.832031 590.3125 93.601562 589.667969 92.398438 588.976562 C 91.191406 588.285156 90.015625 587.550781 88.863281 586.773438 C 87.714844 585.996094 86.59375 585.175781 85.503906 584.316406 C 84.414062 583.453125 83.359375 582.554688 82.335938 581.613281 C 81.316406 580.671875 80.328125 579.695312 79.378906 578.683594 C 78.429688 577.671875 77.519531 576.625 76.648438 575.542969 C 75.773438 574.460938 74.945312 573.347656 74.15625 572.207031 C 73.367188 571.0625 72.621094 569.894531 71.917969 568.695312 C 71.214844 567.496094 70.558594 566.273438 69.949219 565.027344 C 69.335938 563.78125 68.773438 562.511719 68.253906 561.222656 C 67.738281 559.933594 67.269531 558.625 66.847656 557.304688 C 66.429688 555.980469 66.058594 554.640625 65.738281 553.289062 C 65.417969 551.9375 65.148438 550.578125 64.929688 549.203125 C 64.710938 547.832031 64.542969 546.457031 64.425781 545.070312 C 64.308594 543.6875 64.242188 542.300781 64.230469 540.914062 C 64.214844 539.523438 64.253906 538.136719 64.34375 536.75 C 64.433594 535.363281 64.574219 533.984375 64.765625 532.605469 C 64.957031 531.230469 65.199219 529.863281 65.492188 528.507812 C 65.785156 527.148438 66.128906 525.804688 66.523438 524.472656 C 66.917969 523.140625 67.359375 521.824219 67.851562 520.527344 C 68.34375 519.226562 68.882812 517.949219 69.46875 516.6875 C 70.054688 515.429688 70.6875 514.195312 71.363281 512.984375 C 72.042969 511.769531 72.765625 510.585938 73.53125 509.425781 C 74.296875 508.269531 75.105469 507.140625 75.957031 506.042969 C 76.808594 504.945312 77.699219 503.878906 78.625 502.847656 C 79.554688 501.816406 80.523438 500.820312 81.527344 499.859375 C 81.191406 499.066406 80.878906 498.261719 80.59375 497.445312 C 80.308594 496.632812 80.050781 495.808594 79.8125 494.980469 C 79.578125 494.148438 79.371094 493.3125 79.1875 492.46875 C 79.003906 491.628906 78.847656 490.777344 78.714844 489.925781 C 78.582031 489.074219 78.476562 488.21875 78.398438 487.359375 C 78.320312 486.5 78.269531 485.640625 78.242188 484.777344 C 78.21875 483.914062 78.21875 483.050781 78.246094 482.1875 C 78.273438 481.328125 78.328125 480.464844 78.410156 479.605469 C 78.488281 478.75 78.59375 477.894531 78.730469 477.039062 C 78.863281 476.1875 79.019531 475.339844 79.207031 474.496094 C 79.390625 473.65625 79.601562 472.820312 79.839844 471.988281 C 80.078125 471.160156 80.339844 470.339844 80.625 469.523438 C 80.914062 468.710938 81.226562 467.90625 81.5625 467.113281 C 81.898438 466.320312 82.261719 465.535156 82.644531 464.765625 C 83.03125 463.992188 83.4375 463.234375 83.871094 462.484375 C 84.300781 461.738281 84.757812 461.007812 85.234375 460.289062 C 85.710938 459.566406 86.207031 458.863281 86.730469 458.175781 C 87.25 457.488281 87.789062 456.816406 88.351562 456.164062 C 88.914062 455.507812 89.492188 454.871094 90.09375 454.25 C 90.695312 453.632812 91.316406 453.03125 91.953125 452.453125 C 92.589844 451.871094 93.246094 451.308594 93.917969 450.769531 C 94.589844 450.230469 95.277344 449.710938 95.980469 449.210938 C 96.6875 448.714844 97.40625 448.238281 98.136719 447.78125 C 98.871094 447.328125 99.617188 446.898438 100.378906 446.492188 C 101.136719 446.082031 101.910156 445.699219 102.695312 445.339844 C 103.476562 444.976562 104.273438 444.640625 105.074219 444.332031 C 105.878906 444.019531 106.695312 443.734375 107.515625 443.472656 C 108.335938 443.210938 109.167969 442.972656 110.003906 442.761719 C 110.839844 442.554688 111.683594 442.367188 112.53125 442.210938 C 113.378906 442.050781 114.230469 441.917969 115.085938 441.8125 C 115.941406 441.707031 116.800781 441.628906 117.660156 441.574219 C 118.519531 441.523438 119.382812 441.496094 120.246094 441.496094 C 121.109375 441.496094 121.96875 441.523438 122.832031 441.574219 C 123.691406 441.628906 124.550781 441.707031 125.40625 441.8125 C 126.261719 441.917969 127.113281 442.050781 127.960938 442.210938 C 128.808594 442.367188 129.652344 442.554688 130.488281 442.761719 C 131.324219 442.972656 132.152344 443.210938 132.976562 443.472656 C 133.796875 443.734375 134.609375 444.019531 135.414062 444.332031 C 136.21875 444.640625 137.011719 444.976562 137.796875 445.339844 C 138.582031 445.699219 139.351562 446.082031 140.113281 446.492188 C 140.871094 446.898438 141.617188 447.328125 142.351562 447.78125 C 143.085938 448.238281 143.804688 448.714844 144.507812 449.210938 C 145.214844 449.710938 145.902344 450.230469 146.574219 450.769531 C 147.246094 451.308594 147.902344 451.871094 148.539062 452.453125 C 149.175781 453.03125 149.796875 453.632812 150.394531 454.25 C 150.996094 454.871094 151.578125 455.507812 152.140625 456.164062 C 152.699219 456.816406 153.242188 457.488281 153.761719 458.175781 C 154.28125 458.863281 154.78125 459.566406 155.257812 460.289062 C 155.734375 461.007812 156.1875 461.738281 156.621094 462.484375 C 157.050781 463.234375 157.460938 463.992188 157.847656 464.765625 C 158.230469 465.535156 158.59375 466.320312 158.929688 467.113281 C 159.265625 467.90625 159.578125 468.710938 159.863281 469.523438 C 160.152344 470.339844 160.414062 471.160156 160.652344 471.988281 C 160.886719 472.820312 161.097656 473.65625 161.285156 474.496094 C 161.46875 475.339844 161.628906 476.1875 161.761719 477.039062 C 161.894531 477.894531 162.003906 478.75 162.082031 479.605469 C 162.164062 480.464844 162.21875 481.328125 162.246094 482.1875 C 162.273438 483.050781 162.273438 483.914062 162.246094 484.777344 C 162.222656 485.640625 162.167969 486.5 162.089844 487.359375 C 162.011719 488.21875 161.90625 489.074219 161.777344 489.925781 C 161.644531 490.777344 161.488281 491.628906 161.304688 492.46875 C 161.121094 493.3125 160.910156 494.148438 160.675781 494.980469 C 160.441406 495.808594 160.179688 496.632812 159.894531 497.445312 C 159.609375 498.261719 159.300781 499.066406 158.964844 499.859375 C 159.96875 500.820312 160.933594 501.816406 161.863281 502.847656 C 162.792969 503.878906 163.683594 504.945312 164.535156 506.042969 C 165.382812 507.140625 166.191406 508.269531 166.957031 509.425781 C 167.726562 510.585938 168.449219 511.769531 169.125 512.984375 C 169.804688 514.195312 170.4375 515.429688 171.023438 516.6875 C 171.609375 517.949219 172.148438 519.226562 172.640625 520.527344 C 173.132812 521.824219 173.574219 523.140625 173.96875 524.472656 C 174.359375 525.804688 174.703125 527.148438 174.996094 528.507812 C 175.292969 529.863281 175.535156 531.230469 175.726562 532.605469 C 175.917969 533.984375 176.058594 535.363281 176.148438 536.75 C 176.238281 538.136719 176.273438 539.523438 176.261719 540.914062 C 176.246094 542.300781 176.183594 543.6875 176.066406 545.070312 C 175.949219 546.457031 175.78125 547.832031 175.5625 549.203125 C 175.34375 550.578125 175.074219 551.9375 174.75 553.289062 C 174.429688 554.640625 174.0625 555.980469 173.640625 557.304688 C 173.222656 558.625 172.753906 559.933594 172.234375 561.222656 C 171.71875 562.511719 171.15625 563.78125 170.542969 565.027344 C 169.933594 566.273438 169.273438 567.496094 168.574219 568.695312 C 167.871094 569.894531 167.125 571.0625 166.335938 572.207031 C 165.546875 573.347656 164.714844 574.460938 163.84375 575.542969 C 162.972656 576.625 162.0625 577.671875 161.109375 578.683594 C 160.160156 579.695312 159.175781 580.671875 158.152344 581.613281 C 157.128906 582.554688 156.074219 583.453125 154.984375 584.316406 C 153.894531 585.175781 152.777344 585.996094 151.625 586.773438 C 150.476562 587.554688 149.296875 588.289062 148.09375 588.976562 C 146.890625 589.667969 145.660156 590.3125 144.40625 590.914062 C 143.15625 591.511719 141.882812 592.0625 140.585938 592.566406 C 139.292969 593.070312 137.984375 593.527344 136.65625 593.933594 C 135.328125 594.339844 133.988281 594.699219 132.632812 595.003906 C 131.277344 595.3125 129.914062 595.570312 128.542969 595.773438 C 127.167969 595.980469 125.789062 596.136719 124.40625 596.238281 C 123.019531 596.339844 121.632812 596.394531 120.246094 596.394531 Z M 120.246094 460.332031 C 119.191406 460.332031 118.140625 460.402344 117.097656 460.546875 C 116.054688 460.6875 115.023438 460.902344 114.007812 461.1875 C 112.996094 461.46875 112.003906 461.820312 111.035156 462.238281 C 110.070312 462.65625 109.136719 463.140625 108.234375 463.6875 C 107.332031 464.234375 106.472656 464.839844 105.652344 465.503906 C 104.835938 466.164062 104.066406 466.882812 103.34375 467.652344 C 102.621094 468.417969 101.957031 469.234375 101.347656 470.09375 C 100.738281 470.953125 100.1875 471.851562 99.703125 472.785156 C 99.214844 473.71875 98.792969 474.683594 98.4375 475.675781 C 98.082031 476.667969 97.792969 477.679688 97.574219 478.710938 C 97.359375 479.742188 97.210938 480.785156 97.136719 481.835938 C 97.058594 482.886719 97.054688 483.9375 97.121094 484.992188 C 97.191406 486.042969 97.328125 487.085938 97.539062 488.117188 C 97.75 489.152344 98.027344 490.164062 98.378906 491.160156 C 98.726562 492.15625 99.140625 493.121094 99.621094 494.058594 C 100.101562 495 100.640625 495.898438 101.246094 496.765625 C 101.597656 497.269531 101.894531 497.804688 102.140625 498.371094 C 102.386719 498.933594 102.578125 499.519531 102.707031 500.121094 C 102.839844 500.722656 102.914062 501.328125 102.925781 501.945312 C 102.9375 502.5625 102.890625 503.171875 102.785156 503.777344 C 102.675781 504.386719 102.511719 504.976562 102.289062 505.550781 C 102.066406 506.125 101.789062 506.671875 101.460938 507.191406 C 101.128906 507.710938 100.75 508.195312 100.328125 508.640625 C 99.902344 509.085938 99.4375 509.488281 98.9375 509.84375 C 97.863281 510.59375 96.835938 511.394531 95.847656 512.253906 C 94.859375 513.113281 93.921875 514.023438 93.03125 514.980469 C 92.140625 515.9375 91.300781 516.941406 90.515625 517.988281 C 89.730469 519.03125 89.003906 520.117188 88.332031 521.242188 C 87.664062 522.363281 87.050781 523.519531 86.503906 524.707031 C 85.953125 525.894531 85.46875 527.109375 85.050781 528.347656 C 84.628906 529.585938 84.273438 530.84375 83.984375 532.121094 C 83.699219 533.394531 83.476562 534.683594 83.324219 535.984375 C 83.171875 537.28125 83.089844 538.585938 83.074219 539.894531 C 83.0625 541.203125 83.113281 542.507812 83.238281 543.8125 C 83.363281 545.113281 83.554688 546.40625 83.8125 547.6875 C 84.070312 548.96875 84.398438 550.234375 84.792969 551.484375 C 85.183594 552.730469 85.640625 553.957031 86.164062 555.15625 C 86.6875 556.355469 87.269531 557.523438 87.917969 558.660156 C 88.5625 559.800781 89.265625 560.898438 90.027344 561.964844 C 90.789062 563.027344 91.605469 564.046875 92.472656 565.023438 C 93.34375 566.003906 94.261719 566.929688 95.230469 567.8125 C 96.195312 568.691406 97.207031 569.519531 98.261719 570.292969 C 99.316406 571.066406 100.410156 571.78125 101.539062 572.441406 C 102.671875 573.101562 103.832031 573.695312 105.023438 574.234375 C 106.21875 574.769531 107.4375 575.238281 108.679688 575.648438 C 109.921875 576.054688 111.183594 576.394531 112.460938 576.667969 C 113.742188 576.941406 115.03125 577.148438 116.332031 577.285156 C 117.632812 577.421875 118.9375 577.492188 120.246094 577.492188 C 121.554688 577.492188 122.859375 577.421875 124.160156 577.285156 C 125.460938 577.148438 126.75 576.941406 128.027344 576.667969 C 129.308594 576.394531 130.566406 576.054688 131.8125 575.648438 C 133.054688 575.238281 134.273438 574.769531 135.464844 574.234375 C 136.660156 573.695312 137.820312 573.101562 138.949219 572.441406 C 140.082031 571.78125 141.171875 571.066406 142.230469 570.292969 C 143.285156 569.519531 144.292969 568.691406 145.261719 567.8125 C 146.230469 566.929688 147.148438 566.003906 148.015625 565.023438 C 148.886719 564.046875 149.703125 563.027344 150.464844 561.964844 C 151.226562 560.898438 151.929688 559.800781 152.574219 558.660156 C 153.21875 557.523438 153.804688 556.355469 154.328125 555.15625 C 154.847656 553.957031 155.304688 552.730469 155.699219 551.484375 C 156.09375 550.234375 156.417969 548.96875 156.679688 547.6875 C 156.9375 546.40625 157.128906 545.113281 157.253906 543.8125 C 157.375 542.507812 157.429688 541.203125 157.414062 539.894531 C 157.402344 538.585938 157.316406 537.28125 157.164062 535.984375 C 157.011719 534.683594 156.792969 533.394531 156.503906 532.121094 C 156.21875 530.84375 155.863281 529.585938 155.441406 528.347656 C 155.019531 527.109375 154.535156 525.894531 153.988281 524.707031 C 153.4375 523.519531 152.828125 522.363281 152.15625 521.242188 C 151.488281 520.117188 150.757812 519.03125 149.972656 517.988281 C 149.1875 516.941406 148.351562 515.9375 147.460938 514.980469 C 146.570312 514.023438 145.628906 513.113281 144.644531 512.253906 C 143.65625 511.394531 142.625 510.59375 141.554688 509.84375 C 141.050781 509.488281 140.589844 509.085938 140.164062 508.640625 C 139.738281 508.195312 139.363281 507.710938 139.03125 507.191406 C 138.703125 506.671875 138.425781 506.125 138.203125 505.550781 C 137.980469 504.976562 137.816406 504.386719 137.707031 503.777344 C 137.601562 503.171875 137.554688 502.5625 137.566406 501.945312 C 137.578125 501.328125 137.652344 500.722656 137.78125 500.121094 C 137.914062 499.519531 138.101562 498.933594 138.351562 498.371094 C 138.597656 497.804688 138.894531 497.269531 139.246094 496.765625 C 139.847656 495.898438 140.390625 495 140.871094 494.058594 C 141.351562 493.121094 141.765625 492.15625 142.113281 491.160156 C 142.460938 490.164062 142.742188 489.152344 142.953125 488.117188 C 143.160156 487.085938 143.300781 486.042969 143.367188 484.992188 C 143.4375 483.9375 143.433594 482.886719 143.355469 481.835938 C 143.28125 480.785156 143.132812 479.742188 142.914062 478.710938 C 142.699219 477.679688 142.410156 476.667969 142.054688 475.675781 C 141.699219 474.683594 141.277344 473.71875 140.789062 472.785156 C 140.300781 471.851562 139.753906 470.953125 139.144531 470.09375 C 138.535156 469.234375 137.867188 468.417969 137.148438 467.652344 C 136.425781 466.882812 135.65625 466.164062 134.835938 465.503906 C 134.019531 464.839844 133.160156 464.234375 132.257812 463.6875 C 131.355469 463.140625 130.421875 462.65625 129.453125 462.238281 C 128.488281 461.820312 127.496094 461.46875 126.480469 461.1875 C 125.464844 460.902344 124.4375 460.6875 123.390625 460.546875 C 122.347656 460.402344 121.300781 460.332031 120.246094 460.332031 Z M 120.246094 460.332031 " fill-opacity="1" fill-rule="nonzero"/><path fill="#5e1235" d="M 120.246094 669.136719 C 119.625 669.136719 119.011719 669.074219 118.402344 668.953125 C 117.796875 668.832031 117.207031 668.652344 116.632812 668.417969 C 116.0625 668.179688 115.519531 667.886719 115.003906 667.542969 C 114.488281 667.199219 114.011719 666.804688 113.574219 666.367188 C 113.136719 665.929688 112.746094 665.453125 112.402344 664.933594 C 112.058594 664.417969 111.769531 663.875 111.53125 663.300781 C 111.296875 662.730469 111.117188 662.136719 111 661.53125 C 110.878906 660.921875 110.820312 660.308594 110.820312 659.6875 L 110.820312 586.964844 C 110.820312 586.347656 110.882812 585.734375 111.003906 585.125 C 111.125 584.519531 111.300781 583.929688 111.539062 583.355469 C 111.777344 582.785156 112.066406 582.242188 112.410156 581.726562 C 112.753906 581.210938 113.144531 580.734375 113.582031 580.296875 C 114.019531 579.859375 114.496094 579.46875 115.011719 579.125 C 115.527344 578.78125 116.070312 578.488281 116.640625 578.253906 C 117.214844 578.015625 117.804688 577.835938 118.410156 577.714844 C 119.019531 577.59375 119.632812 577.535156 120.25 577.535156 C 120.871094 577.535156 121.484375 577.59375 122.089844 577.714844 C 122.699219 577.835938 123.289062 578.015625 123.859375 578.253906 C 124.429688 578.488281 124.976562 578.78125 125.488281 579.125 C 126.003906 579.46875 126.480469 579.859375 126.917969 580.296875 C 127.355469 580.734375 127.746094 581.210938 128.089844 581.726562 C 128.433594 582.242188 128.726562 582.785156 128.960938 583.355469 C 129.199219 583.929688 129.378906 584.519531 129.5 585.125 C 129.621094 585.734375 129.679688 586.347656 129.679688 586.964844 L 129.679688 659.6875 C 129.679688 660.308594 129.621094 660.921875 129.503906 661.53125 C 129.382812 662.140625 129.203125 662.730469 128.96875 663.304688 C 128.730469 663.878906 128.441406 664.421875 128.097656 664.9375 C 127.753906 665.453125 127.363281 665.933594 126.921875 666.371094 C 126.484375 666.808594 126.007812 667.203125 125.492188 667.546875 C 124.976562 667.890625 124.433594 668.183594 123.859375 668.417969 C 123.285156 668.65625 122.695312 668.835938 122.089844 668.957031 C 121.480469 669.078125 120.867188 669.136719 120.246094 669.136719 Z M 120.246094 669.136719 " fill-opacity="1" fill-rule="nonzero"/><path fill="#3efffa" d="M 95.472656 638.6875 L 145.03125 638.6875 L 145.03125 688.261719 L 95.472656 688.261719 Z M 95.472656 638.6875 " fill-opacity="1" fill-rule="nonzero"/><path fill="#5e1235" d="M 145.03125 697.699219 L 95.472656 697.699219 C 94.851562 697.699219 94.238281 697.640625 93.632812 697.519531 C 93.027344 697.398438 92.4375 697.21875 91.863281 696.980469 C 91.292969 696.746094 90.75 696.453125 90.234375 696.109375 C 89.722656 695.765625 89.246094 695.375 88.808594 694.9375 C 88.371094 694.5 87.980469 694.023438 87.636719 693.511719 C 87.292969 692.996094 87 692.453125 86.765625 691.878906 C 86.527344 691.308594 86.347656 690.71875 86.226562 690.113281 C 86.109375 689.503906 86.046875 688.890625 86.046875 688.273438 L 86.046875 638.6875 C 86.046875 638.070312 86.109375 637.457031 86.226562 636.847656 C 86.347656 636.242188 86.527344 635.652344 86.765625 635.082031 C 87 634.507812 87.292969 633.964844 87.636719 633.449219 C 87.980469 632.9375 88.371094 632.460938 88.808594 632.023438 C 89.246094 631.585938 89.722656 631.195312 90.234375 630.851562 C 90.75 630.503906 91.292969 630.214844 91.863281 629.980469 C 92.4375 629.742188 93.027344 629.5625 93.632812 629.441406 C 94.238281 629.320312 94.851562 629.261719 95.472656 629.261719 L 145.03125 629.261719 C 145.648438 629.261719 146.261719 629.320312 146.867188 629.441406 C 147.476562 629.5625 148.066406 629.742188 148.636719 629.980469 C 149.207031 630.214844 149.75 630.503906 150.265625 630.851562 C 150.78125 631.195312 151.257812 631.585938 151.695312 632.023438 C 152.132812 632.460938 152.523438 632.9375 152.867188 633.449219 C 153.210938 633.964844 153.5 634.507812 153.738281 635.082031 C 153.972656 635.652344 154.152344 636.242188 154.273438 636.847656 C 154.394531 637.457031 154.453125 638.070312 154.453125 638.6875 L 154.453125 688.261719 C 154.453125 688.882812 154.394531 689.496094 154.273438 690.101562 C 154.15625 690.710938 153.976562 691.300781 153.738281 691.871094 C 153.503906 692.445312 153.214844 692.988281 152.871094 693.503906 C 152.527344 694.019531 152.136719 694.496094 151.699219 694.933594 C 151.261719 695.375 150.785156 695.765625 150.269531 696.109375 C 149.753906 696.453125 149.210938 696.742188 148.640625 696.980469 C 148.066406 697.21875 147.476562 697.398438 146.871094 697.519531 C 146.261719 697.640625 145.648438 697.699219 145.03125 697.699219 Z M 104.875 678.835938 L 135.597656 678.835938 L 135.597656 648.125 L 104.875 648.125 Z M 104.875 678.835938 " fill-opacity="1" fill-rule="nonzero"/><path fill="#ffffff" d="M 246.664062 650.96875 C 246.054688 650.96875 245.445312 650.910156 244.84375 650.789062 C 244.242188 650.671875 243.660156 650.492188 243.09375 650.257812 C 242.527344 650.023438 241.988281 649.734375 241.480469 649.394531 C 240.96875 649.054688 240.496094 648.667969 240.0625 648.234375 C 239.628906 647.800781 239.242188 647.328125 238.902344 646.820312 C 238.5625 646.308594 238.273438 645.769531 238.039062 645.203125 C 237.804688 644.636719 237.628906 644.054688 237.507812 643.453125 C 237.390625 642.851562 237.328125 642.242188 237.328125 641.628906 L 237.328125 594.660156 C 237.328125 594.046875 237.390625 593.441406 237.507812 592.839844 C 237.628906 592.238281 237.804688 591.652344 238.039062 591.085938 C 238.273438 590.519531 238.5625 589.980469 238.902344 589.472656 C 239.242188 588.960938 239.628906 588.488281 240.0625 588.054688 C 240.496094 587.621094 240.96875 587.234375 241.480469 586.894531 C 241.988281 586.554688 242.527344 586.265625 243.09375 586.03125 C 243.660156 585.796875 244.242188 585.621094 244.84375 585.5 C 245.445312 585.378906 246.054688 585.320312 246.664062 585.320312 C 247.277344 585.320312 247.886719 585.378906 248.488281 585.5 C 249.089844 585.621094 249.671875 585.796875 250.238281 586.03125 C 250.804688 586.265625 251.34375 586.554688 251.851562 586.894531 C 252.363281 587.234375 252.835938 587.621094 253.269531 588.054688 C 253.703125 588.488281 254.089844 588.960938 254.429688 589.472656 C 254.769531 589.980469 255.058594 590.519531 255.292969 591.085938 C 255.527344 591.652344 255.703125 592.238281 255.824219 592.839844 C 255.941406 593.441406 256.003906 594.046875 256.003906 594.660156 L 256.003906 641.628906 C 256.003906 642.242188 255.941406 642.851562 255.824219 643.453125 C 255.703125 644.054688 255.527344 644.636719 255.292969 645.203125 C 255.058594 645.769531 254.769531 646.308594 254.429688 646.820312 C 254.089844 647.328125 253.703125 647.800781 253.269531 648.234375 C 252.835938 648.667969 252.363281 649.054688 251.851562 649.394531 C 251.34375 649.734375 250.804688 650.023438 250.238281 650.257812 C 249.671875 650.492188 249.089844 650.671875 248.488281 650.789062 C 247.886719 650.910156 247.277344 650.96875 246.664062 650.96875 Z M 246.664062 650.96875 " fill-opacity="1" fill-rule="nonzero"/></svg>