<svg xmlns="http://www.w3.org/2000/svg" xmlns:xlink="http://www.w3.org/1999/xlink" width="793" zoomAndPan="magnify" viewBox="0 0 595.5 842.249979" height="1122" preserveAspectRatio="xMidYMid meet" version="1.0"><defs><clipPath id="ea4d82b3c9"><path d="M 194 186.992188 L 401 186.992188 L 401 505 L 194 505 Z M 194 186.992188 " clip-rule="nonzero"/></clipPath><clipPath id="73ac927877"><path d="M 448 591 L 465 591 L 465 654.96875 L 448 654.96875 Z M 448 591 " clip-rule="nonzero"/></clipPath><clipPath id="b38d063a78"><path d="M 487 599 L 504 599 L 504 654.96875 L 487 654.96875 Z M 487 599 " clip-rule="nonzero"/></clipPath><clipPath id="6965a6c773"><path d="M 218 599 L 266 599 L 266 654.96875 L 218 654.96875 Z M 218 599 " clip-rule="nonzero"/></clipPath><clipPath id="a47e74b416"><path d="M 289 186.992188 L 306 186.992188 L 306 243 L 289 243 Z M 289 186.992188 " clip-rule="nonzero"/></clipPath><clipPath id="52b6d0dfa8"><path d="M 107 480 L 124 480 L 124 654.96875 L 107 654.96875 Z M 107 480 " clip-rule="nonzero"/></clipPath><clipPath id="295295f1d5"><path d="M 59.539062 639 L 535.765625 639 L 535.765625 654.96875 L 59.539062 654.96875 Z M 59.539062 639 " clip-rule="nonzero"/></clipPath><clipPath id="eea6282cda"><path d="M 194 186.992188 L 401 186.992188 L 401 251 L 194 251 Z M 194 186.992188 " clip-rule="nonzero"/></clipPath></defs><g clip-path="url(#ea4d82b3c9)"><path fill="#d18d28" d="M 297.652344 186.992188 L 194.558594 234.582031 L 194.558594 504.265625 L 400.746094 504.265625 L 400.746094 234.582031 L 297.652344 186.992188 " fill-opacity="1" fill-rule="nonzero"/></g><path fill="#fbb540" d="M 400.746094 472.535156 L 194.558594 472.535156 L 194.558594 337.695312 L 400.746094 337.695312 L 400.746094 472.535156 " fill-opacity="1" fill-rule="nonzero"/><g clip-path="url(#73ac927877)"><path fill="#5b3726" d="M 456.261719 654.96875 C 451.882812 654.96875 448.332031 651.417969 448.332031 647.035156 L 448.332031 599.445312 C 448.332031 595.066406 451.882812 591.515625 456.261719 591.515625 C 460.640625 591.515625 464.191406 595.066406 464.191406 599.445312 L 464.191406 647.035156 C 464.191406 651.417969 460.640625 654.96875 456.261719 654.96875 " fill-opacity="1" fill-rule="nonzero"/></g><g clip-path="url(#b38d063a78)"><path fill="#834b10" d="M 495.914062 654.96875 C 491.53125 654.96875 487.980469 651.417969 487.980469 647.035156 L 487.980469 607.378906 C 487.980469 602.996094 491.53125 599.445312 495.914062 599.445312 C 500.292969 599.445312 503.84375 602.996094 503.84375 607.378906 L 503.84375 647.035156 C 503.84375 651.417969 500.292969 654.96875 495.914062 654.96875 " fill-opacity="1" fill-rule="nonzero"/></g><path fill="#fbb540" d="M 400.746094 647.035156 L 194.558594 647.035156 L 194.558594 504.265625 L 400.746094 504.265625 L 400.746094 647.035156 " fill-opacity="1" fill-rule="nonzero"/><path fill="#834b10" d="M 369.027344 647.035156 L 321.445312 647.035156 L 321.445312 583.582031 C 321.445312 570.441406 332.097656 559.785156 345.234375 559.785156 C 358.375 559.785156 369.027344 570.441406 369.027344 583.582031 L 369.027344 647.035156 " fill-opacity="1" fill-rule="nonzero"/><path fill="#d18d28" d="M 289.722656 647.035156 L 194.558594 647.035156 L 194.558594 504.265625 L 289.722656 504.265625 L 289.722656 647.035156 " fill-opacity="1" fill-rule="nonzero"/><path fill="#a8a8a8" d="M 242.140625 543.921875 C 237.761719 543.921875 234.210938 540.371094 234.210938 535.992188 L 234.210938 504.265625 C 234.210938 499.882812 237.761719 496.332031 242.140625 496.332031 C 246.519531 496.332031 250.070312 499.882812 250.070312 504.265625 L 250.070312 535.992188 C 250.070312 540.371094 246.519531 543.921875 242.140625 543.921875 " fill-opacity="1" fill-rule="nonzero"/><path fill="#f55648" d="M 226.277344 559.785156 C 226.277344 549.628906 230.3125 539.886719 237.492188 532.707031 L 242.140625 528.058594 L 246.785156 532.707031 C 253.964844 539.886719 258 549.628906 258 559.785156 L 226.277344 559.785156 " fill-opacity="1" fill-rule="nonzero"/><g clip-path="url(#6965a6c773)"><path fill="#5b3726" d="M 258 654.96875 C 253.621094 654.96875 250.070312 651.417969 250.070312 647.035156 L 250.070312 615.308594 L 234.210938 615.308594 L 234.210938 647.035156 C 234.210938 651.417969 230.660156 654.96875 226.277344 654.96875 C 221.898438 654.96875 218.347656 651.417969 218.347656 647.035156 L 218.347656 607.378906 C 218.347656 602.996094 221.898438 599.445312 226.277344 599.445312 L 258 599.445312 C 262.378906 599.445312 265.929688 602.996094 265.929688 607.378906 L 265.929688 647.035156 C 265.929688 651.417969 262.378906 654.96875 258 654.96875 " fill-opacity="1" fill-rule="nonzero"/></g><path fill="#fbfbf9" d="M 369.027344 528.058594 L 321.445312 528.058594 L 321.445312 504.265625 L 369.027344 504.265625 L 369.027344 528.058594 " fill-opacity="1" fill-rule="nonzero"/><path fill="#834b10" d="M 265.929688 615.308594 L 218.347656 615.308594 L 218.347656 591.515625 L 265.929688 591.515625 L 265.929688 615.308594 " fill-opacity="1" fill-rule="nonzero"/><path fill="#0a71cd" d="M 305.582031 448.742188 L 226.277344 448.742188 L 226.277344 424.945312 L 305.582031 424.945312 L 305.582031 448.742188 " fill-opacity="1" fill-rule="nonzero"/><path fill="#0a71cd" d="M 305.582031 393.21875 L 226.277344 393.21875 L 226.277344 369.421875 L 305.582031 369.421875 L 305.582031 393.21875 " fill-opacity="1" fill-rule="nonzero"/><path fill="#834b10" d="M 226.277344 480.46875 C 221.898438 480.46875 218.347656 476.917969 218.347656 472.535156 L 218.347656 369.421875 C 218.347656 365.042969 221.898438 361.492188 226.277344 361.492188 C 230.660156 361.492188 234.210938 365.042969 234.210938 369.421875 L 234.210938 472.535156 C 234.210938 476.917969 230.660156 480.46875 226.277344 480.46875 " fill-opacity="1" fill-rule="nonzero"/><path fill="#bce1ff" d="M 369.027344 313.902344 L 289.722656 313.902344 L 289.722656 296.054688 C 289.722656 292.769531 292.386719 290.105469 295.671875 290.105469 L 363.078125 290.105469 C 366.363281 290.105469 369.027344 292.769531 369.027344 296.054688 L 369.027344 313.902344 " fill-opacity="1" fill-rule="nonzero"/><path fill="#834b10" d="M 305.582031 480.46875 C 301.203125 480.46875 297.652344 476.917969 297.652344 472.535156 L 297.652344 369.421875 C 297.652344 365.042969 301.203125 361.492188 305.582031 361.492188 C 309.960938 361.492188 313.511719 365.042969 313.511719 369.421875 L 313.511719 472.535156 C 313.511719 476.917969 309.960938 480.46875 305.582031 480.46875 " fill-opacity="1" fill-rule="nonzero"/><path fill="#834b10" d="M 369.027344 480.46875 C 364.648438 480.46875 361.097656 476.917969 361.097656 472.535156 L 361.097656 448.742188 L 345.234375 448.742188 L 345.234375 472.535156 C 345.234375 476.917969 341.683594 480.46875 337.304688 480.46875 C 332.925781 480.46875 329.375 476.917969 329.375 472.535156 L 329.375 440.808594 C 329.375 436.429688 332.925781 432.878906 337.304688 432.878906 L 369.027344 432.878906 C 373.40625 432.878906 376.957031 436.429688 376.957031 440.808594 L 376.957031 472.535156 C 376.957031 476.917969 373.40625 480.46875 369.027344 480.46875 " fill-opacity="1" fill-rule="nonzero"/><path fill="#3a97ff" d="M 345.234375 393.21875 L 337.304688 417.015625 L 369.027344 417.015625 L 361.097656 393.21875 L 345.234375 393.21875 " fill-opacity="1" fill-rule="nonzero"/><path fill="#ebebeb" d="M 361.097656 432.878906 L 345.234375 432.878906 L 345.234375 417.015625 L 361.097656 417.015625 L 361.097656 432.878906 " fill-opacity="1" fill-rule="nonzero"/><path fill="#834b10" d="M 258 345.628906 C 253.621094 345.628906 250.070312 342.078125 250.070312 337.695312 L 250.070312 321.832031 L 234.210938 321.832031 L 234.210938 337.695312 C 234.210938 342.078125 230.660156 345.628906 226.277344 345.628906 C 221.898438 345.628906 218.347656 342.078125 218.347656 337.695312 L 218.347656 313.902344 C 218.347656 309.519531 221.898438 305.96875 226.277344 305.96875 L 258 305.96875 C 262.378906 305.96875 265.929688 309.519531 265.929688 313.902344 L 265.929688 337.695312 C 265.929688 342.078125 262.378906 345.628906 258 345.628906 " fill-opacity="1" fill-rule="nonzero"/><path fill="#c75b93" d="M 234.210938 266.308594 L 226.277344 290.105469 L 258 290.105469 L 250.070312 266.308594 L 234.210938 266.308594 " fill-opacity="1" fill-rule="nonzero"/><path fill="#ebebeb" d="M 250.070312 305.96875 L 234.210938 305.96875 L 234.210938 290.105469 L 250.070312 290.105469 L 250.070312 305.96875 " fill-opacity="1" fill-rule="nonzero"/><path fill="#c3c3c3" d="M 250.070312 298.039062 L 234.210938 298.039062 L 234.210938 290.105469 L 250.070312 290.105469 L 250.070312 298.039062 " fill-opacity="1" fill-rule="nonzero"/><path fill="#834b10" d="M 369.027344 345.628906 C 364.648438 345.628906 361.097656 342.078125 361.097656 337.695312 L 361.097656 321.832031 L 297.652344 321.832031 L 297.652344 337.695312 C 297.652344 342.078125 294.101562 345.628906 289.722656 345.628906 C 285.34375 345.628906 281.792969 342.078125 281.792969 337.695312 L 281.792969 313.902344 C 281.792969 309.519531 285.34375 305.96875 289.722656 305.96875 L 369.027344 305.96875 C 373.40625 305.96875 376.957031 309.519531 376.957031 313.902344 L 376.957031 337.695312 C 376.957031 342.078125 373.40625 345.628906 369.027344 345.628906 " fill-opacity="1" fill-rule="nonzero"/><path fill="#e4e4e2" d="M 329.375 290.105469 L 297.652344 290.105469 L 297.652344 266.308594 L 329.375 266.308594 L 329.375 290.105469 " fill-opacity="1" fill-rule="nonzero"/><path fill="#dbdbdb" d="M 361.097656 290.105469 L 329.375 290.105469 L 329.375 266.308594 L 361.097656 266.308594 L 361.097656 290.105469 " fill-opacity="1" fill-rule="nonzero"/><g clip-path="url(#a47e74b416)"><path fill="#a8a8a8" d="M 297.652344 242.515625 C 293.273438 242.515625 289.722656 238.964844 289.722656 234.582031 L 289.722656 194.925781 C 289.722656 190.542969 293.273438 186.992188 297.652344 186.992188 C 302.03125 186.992188 305.582031 190.542969 305.582031 194.925781 L 305.582031 234.582031 C 305.582031 238.964844 302.03125 242.515625 297.652344 242.515625 " fill-opacity="1" fill-rule="nonzero"/></g><path fill="#f55648" d="M 297.652344 218.71875 C 306.410156 218.71875 313.511719 225.820312 313.511719 234.582031 L 313.511719 242.515625 L 281.792969 242.515625 L 281.792969 234.582031 C 281.792969 225.820312 288.894531 218.71875 297.652344 218.71875 " fill-opacity="1" fill-rule="nonzero"/><path fill="#03816b" d="M 456.261719 607.378906 C 443.121094 607.378906 432.46875 596.722656 432.46875 583.582031 L 432.46875 543.921875 C 432.46875 530.78125 443.121094 520.128906 456.261719 520.128906 C 469.398438 520.128906 480.050781 530.78125 480.050781 543.921875 L 480.050781 583.582031 C 480.050781 596.722656 469.398438 607.378906 456.261719 607.378906 " fill-opacity="1" fill-rule="nonzero"/><path fill="#05b093" d="M 464.191406 583.582031 C 464.191406 566.0625 478.394531 551.855469 495.914062 551.855469 C 513.429688 551.855469 527.632812 566.0625 527.632812 583.582031 C 527.632812 601.101562 513.429688 615.308594 495.914062 615.308594 C 478.394531 615.308594 464.191406 601.101562 464.191406 583.582031 " fill-opacity="1" fill-rule="nonzero"/><g clip-path="url(#52b6d0dfa8)"><path fill="#834b10" d="M 115.253906 654.96875 C 110.875 654.96875 107.324219 651.417969 107.324219 647.035156 L 107.324219 488.402344 C 107.324219 484.019531 110.875 480.46875 115.253906 480.46875 C 119.632812 480.46875 123.183594 484.019531 123.183594 488.402344 L 123.183594 647.035156 C 123.183594 651.417969 119.632812 654.96875 115.253906 654.96875 " fill-opacity="1" fill-rule="nonzero"/></g><path fill="#05b093" d="M 146.976562 520.128906 C 144.945312 520.128906 142.917969 519.351562 141.367188 517.804688 L 115.253906 491.683594 L 89.140625 517.804688 C 86.039062 520.902344 81.023438 520.902344 77.925781 517.804688 C 74.828125 514.707031 74.828125 509.6875 77.925781 506.585938 L 109.644531 474.859375 C 112.742188 471.761719 117.761719 471.761719 120.859375 474.859375 L 152.582031 506.585938 C 155.679688 509.6875 155.679688 514.707031 152.582031 517.804688 C 151.03125 519.351562 149.003906 520.128906 146.976562 520.128906 " fill-opacity="1" fill-rule="nonzero"/><path fill="#05b093" d="M 146.976562 559.785156 C 144.945312 559.785156 142.917969 559.011719 141.367188 557.464844 L 115.253906 531.34375 L 89.140625 557.464844 C 86.039062 560.5625 81.023438 560.5625 77.925781 557.464844 C 74.828125 554.363281 74.828125 549.34375 77.925781 546.246094 L 109.644531 514.519531 C 112.742188 511.421875 117.761719 511.421875 120.859375 514.519531 L 152.582031 546.246094 C 155.679688 549.34375 155.679688 554.363281 152.582031 557.464844 C 151.03125 559.011719 149.003906 559.785156 146.976562 559.785156 " fill-opacity="1" fill-rule="nonzero"/><path fill="#05b093" d="M 146.976562 599.445312 C 144.945312 599.445312 142.917969 598.671875 141.367188 597.121094 L 115.253906 571.003906 L 89.140625 597.121094 C 86.039062 600.21875 81.023438 600.21875 77.925781 597.121094 C 74.828125 594.023438 74.828125 589.003906 77.925781 585.90625 L 109.644531 554.179688 C 112.742188 551.082031 117.761719 551.082031 120.859375 554.179688 L 152.582031 585.90625 C 155.679688 589.003906 155.679688 594.023438 152.582031 597.121094 C 151.03125 598.671875 149.003906 599.445312 146.976562 599.445312 " fill-opacity="1" fill-rule="nonzero"/><g clip-path="url(#295295f1d5)"><path fill="#027e2a" d="M 535.566406 654.96875 L 59.742188 654.96875 L 59.742188 639.105469 L 535.566406 639.105469 L 535.566406 654.96875 " fill-opacity="1" fill-rule="nonzero"/></g><path fill="#c3c3c3" d="M 400.746094 504.265625 L 194.558594 504.265625 L 194.558594 472.535156 L 400.746094 472.535156 L 400.746094 504.265625 " fill-opacity="1" fill-rule="nonzero"/><path fill="#834b10" d="M 297.652344 456.671875 L 234.210938 456.671875 L 234.210938 448.742188 L 297.652344 448.742188 L 297.652344 456.671875 " fill-opacity="1" fill-rule="nonzero"/><path fill="#834b10" d="M 297.652344 401.152344 L 234.210938 401.152344 L 234.210938 393.21875 L 297.652344 393.21875 L 297.652344 401.152344 " fill-opacity="1" fill-rule="nonzero"/><path fill="#c3c3c3" d="M 361.097656 424.945312 L 345.234375 424.945312 L 345.234375 417.015625 L 361.097656 417.015625 L 361.097656 424.945312 " fill-opacity="1" fill-rule="nonzero"/><path fill="#d18d28" d="M 369.027344 535.992188 L 321.445312 535.992188 L 321.445312 528.058594 L 369.027344 528.058594 L 369.027344 535.992188 " fill-opacity="1" fill-rule="nonzero"/><path fill="#c3c3c3" d="M 400.746094 345.628906 L 194.558594 345.628906 L 194.558594 329.765625 L 400.746094 329.765625 L 400.746094 345.628906 " fill-opacity="1" fill-rule="nonzero"/><path fill="#b9b9b9" d="M 333.339844 290.105469 L 329.375 290.105469 L 329.375 266.308594 L 333.339844 266.308594 C 335.53125 266.308594 337.304688 268.082031 337.304688 270.277344 L 337.304688 286.140625 C 337.304688 288.332031 335.53125 290.105469 333.339844 290.105469 " fill-opacity="1" fill-rule="nonzero"/><g clip-path="url(#eea6282cda)"><path fill="#3a97ff" d="M 400.746094 250.445312 L 297.652344 202.855469 L 194.558594 250.445312 L 194.558594 234.582031 L 297.652344 186.992188 L 400.746094 234.582031 L 400.746094 250.445312 " fill-opacity="1" fill-rule="nonzero"/></g></svg>