<svg xmlns="http://www.w3.org/2000/svg" xmlns:xlink="http://www.w3.org/1999/xlink" width="793" zoomAndPan="magnify" viewBox="0 0 595.5 842.249979" height="1122" preserveAspectRatio="xMidYMid meet" version="1.0"><defs><clipPath id="c3a630acc1"><path d="M 272 249.195312 L 535.765625 249.195312 L 535.765625 401 L 272 401 Z M 272 249.195312 " clip-rule="nonzero"/></clipPath><clipPath id="5762600f47"><path d="M 260 584 L 491 584 L 491 592.675781 L 260 592.675781 Z M 260 584 " clip-rule="nonzero"/></clipPath><clipPath id="30e8495d72"><path d="M 59.539062 584 L 173 584 L 173 592.675781 L 59.539062 592.675781 Z M 59.539062 584 " clip-rule="nonzero"/></clipPath></defs><path fill="#f29200" d="M 201.664062 495.976562 L 281.894531 495.976562 L 281.894531 543.105469 L 201.664062 543.105469 Z M 201.664062 495.976562 " fill-opacity="1" fill-rule="nonzero"/><path fill="#f29200" d="M 137.597656 495.976562 L 176.59375 495.976562 L 176.59375 572.464844 L 137.597656 572.464844 Z M 137.597656 495.976562 " fill-opacity="1" fill-rule="nonzero"/><path fill="#682f0a" d="M 178.667969 396.949219 L 306.136719 396.949219 L 306.136719 431.757812 L 178.667969 431.757812 Z M 178.667969 396.949219 " fill-opacity="1" fill-rule="nonzero"/><path fill="#4c2007" d="M 276.640625 373.574219 L 276.640625 396.949219 L 157.304688 396.949219 L 172.242188 373.574219 Z M 276.640625 373.574219 " fill-opacity="1" fill-rule="nonzero"/><path fill="#4c2007" d="M 306.136719 431.757812 L 306.136719 465.578125 L 80.9375 465.578125 L 103.5625 431.757812 Z M 306.136719 431.757812 " fill-opacity="1" fill-rule="nonzero"/><path fill="#682f0a" d="M 306.136719 465.578125 L 306.136719 572.464844 L 176.59375 572.464844 L 176.59375 495.976562 L 137.597656 495.976562 L 137.597656 572.464844 L 103.5625 572.464844 L 103.5625 465.578125 Z M 281.894531 543.105469 L 281.894531 495.976562 L 201.664062 495.976562 L 201.664062 543.105469 Z M 281.894531 543.105469 " fill-opacity="1" fill-rule="nonzero"/><path fill="#3a2e26" d="M 493.902344 299.964844 L 493.902344 337.105469 L 481.722656 325.738281 L 472.027344 316.683594 L 472.027344 299.964844 Z M 493.902344 299.964844 " fill-opacity="1" fill-rule="nonzero"/><path fill="#cc7605" d="M 424.832031 494.46875 L 466.101562 494.46875 L 466.101562 535.691406 L 424.832031 535.691406 Z M 424.832031 494.46875 " fill-opacity="1" fill-rule="nonzero"/><path fill="#cc7605" d="M 383.601562 453.234375 L 424.832031 453.234375 L 424.832031 494.46875 L 383.601562 494.46875 Z M 383.601562 453.234375 " fill-opacity="1" fill-rule="nonzero"/><path fill="#cc7605" d="M 342.378906 494.46875 L 383.601562 494.46875 L 383.601562 535.691406 L 342.378906 535.691406 Z M 342.378906 494.46875 " fill-opacity="1" fill-rule="nonzero"/><path fill="#cc7605" d="M 382.515625 356.78125 L 452.445312 356.78125 L 452.445312 407.546875 L 382.515625 407.546875 Z M 382.515625 356.78125 " fill-opacity="1" fill-rule="nonzero"/><path fill="#f29200" d="M 383.601562 494.46875 L 424.832031 494.46875 L 424.832031 535.691406 L 383.601562 535.691406 Z M 383.601562 494.46875 " fill-opacity="1" fill-rule="nonzero"/><path fill="#f29200" d="M 424.832031 453.234375 L 466.101562 453.234375 L 466.101562 494.46875 L 424.832031 494.46875 Z M 424.832031 453.234375 " fill-opacity="1" fill-rule="nonzero"/><path fill="#f29200" d="M 342.378906 453.234375 L 383.601562 453.234375 L 383.601562 494.46875 L 342.378906 494.46875 Z M 342.378906 453.234375 " fill-opacity="1" fill-rule="nonzero"/><path fill="#f29200" d="M 356.003906 356.78125 L 382.515625 356.78125 L 382.515625 407.546875 L 356.003906 407.546875 Z M 356.003906 356.78125 " fill-opacity="1" fill-rule="nonzero"/><path fill="#3a2e26" d="M 531.796875 372.445312 L 531.796875 396.949219 L 502.296875 369.4375 L 502.296875 369.417969 L 404.21875 277.945312 L 306.136719 369.417969 L 306.136719 369.4375 L 276.640625 396.949219 L 276.640625 372.445312 L 404.21875 253.441406 L 481.722656 325.738281 L 493.902344 337.117188 L 493.902344 337.105469 Z M 531.796875 372.445312 " fill-opacity="1" fill-rule="nonzero"/><path fill="#4f4033" d="M 502.296875 369.4375 L 502.296875 572.464844 L 306.136719 572.464844 L 306.136719 369.4375 L 404.21875 277.945312 Z M 466.101562 535.691406 L 466.101562 453.234375 L 342.378906 453.234375 L 342.378906 535.691406 Z M 452.445312 407.546875 L 452.445312 356.777344 L 356.003906 356.777344 L 356.003906 407.546875 Z M 452.445312 407.546875 " fill-opacity="1" fill-rule="nonzero"/><path fill="#32c5f4" d="M 253.785156 303.070312 C 255.492188 304.730469 256.554688 307.085938 256.554688 309.648438 C 256.554688 314.796875 252.441406 318.875 247.359375 318.875 C 230.371094 318.875 212.78125 318.875 196.222656 318.875 C 191.15625 318.875 187.0625 314.796875 187.0625 309.648438 C 187.0625 304.589844 191.15625 300.496094 196.222656 300.496094 L 196.300781 300.496094 C 196.222656 299.964844 196.183594 299.519531 196.183594 298.988281 C 196.183594 293.917969 200.316406 289.746094 205.378906 289.746094 L 205.5625 289.746094 C 206.289062 285.363281 210.066406 282.039062 214.59375 282.039062 C 216.429688 282.039062 218.046875 282.570312 219.449219 283.398438 C 221.335938 280.367188 224.734375 278.402344 228.601562 278.402344 C 234.507812 278.402344 239.335938 283.179688 239.335938 289.152344 C 239.335938 289.671875 239.273438 290.289062 239.1875 290.824219 C 240.445312 290.355469 241.835938 290.0625 243.277344 290.0625 C 249.21875 290.0625 254.015625 294.894531 254.015625 300.800781 C 254.015625 301.636719 253.949219 302.386719 253.785156 303.070312 Z M 253.785156 303.070312 " fill-opacity="1" fill-rule="nonzero"/><path fill="#000000" d="M 502.296875 576.371094 C 500.140625 576.371094 498.390625 574.621094 498.390625 572.464844 L 498.390625 371.113281 L 404.21875 283.285156 L 310.042969 371.113281 L 310.042969 373.574219 C 310.042969 375.730469 308.292969 377.480469 306.136719 377.480469 C 303.980469 377.480469 302.230469 375.730469 302.230469 373.574219 L 302.230469 369.4375 C 302.230469 368.355469 302.679688 367.300781 303.472656 366.5625 L 401.554688 275.089844 C 403.054688 273.691406 405.378906 273.691406 406.878906 275.089844 L 504.960938 366.5625 C 505.75 367.300781 506.199219 368.332031 506.199219 369.417969 L 506.199219 572.464844 C 506.203125 574.621094 504.453125 576.371094 502.296875 576.371094 Z M 502.296875 576.371094 " fill-opacity="1" fill-rule="nonzero"/><g clip-path="url(#c3a630acc1)"><path fill="#000000" d="M 531.796875 400.855469 C 530.824219 400.855469 529.871094 400.492188 529.132812 399.804688 L 404.21875 283.285156 L 279.304688 399.804688 C 277.726562 401.277344 275.257812 401.191406 273.785156 399.613281 C 272.3125 398.035156 272.402344 395.566406 273.976562 394.09375 L 401.554688 275.089844 C 403.054688 273.691406 405.378906 273.691406 406.878906 275.089844 L 527.890625 387.96875 L 527.890625 374.144531 L 404.21875 258.78125 L 280.496094 374.1875 C 280.203125 376.054688 278.589844 377.480469 276.640625 377.480469 C 274.484375 377.480469 272.734375 375.730469 272.734375 373.574219 L 272.734375 372.445312 C 272.734375 371.363281 273.183594 370.328125 273.976562 369.589844 L 401.554688 250.585938 C 403.054688 249.1875 405.378906 249.1875 406.878906 250.585938 L 534.457031 369.589844 C 535.25 370.328125 535.699219 371.363281 535.699219 372.445312 L 535.699219 396.949219 C 535.699219 398.503906 534.777344 399.910156 533.351562 400.53125 C 532.851562 400.75 532.320312 400.855469 531.796875 400.855469 Z M 531.796875 400.855469 " fill-opacity="1" fill-rule="nonzero"/></g><path fill="#000000" d="M 493.898438 341.019531 C 492.929688 341.019531 491.976562 340.65625 491.238281 339.96875 L 469.363281 319.539062 C 468.570312 318.796875 468.125 317.765625 468.125 316.683594 L 468.125 299.964844 C 468.125 297.808594 469.871094 296.058594 472.027344 296.058594 L 493.90625 296.058594 C 496.0625 296.058594 497.808594 297.808594 497.808594 299.964844 L 497.808594 337.105469 C 497.808594 338.660156 496.886719 340.074219 495.460938 340.691406 C 494.957031 340.910156 494.425781 341.019531 493.898438 341.019531 Z M 475.933594 314.988281 L 490 328.125 L 490 303.871094 L 475.933594 303.871094 Z M 475.933594 314.988281 " fill-opacity="1" fill-rule="nonzero"/><path fill="#000000" d="M 306.136719 576.371094 C 303.980469 576.371094 302.230469 574.621094 302.230469 572.464844 L 302.230469 465.578125 C 302.230469 463.421875 303.980469 461.671875 306.136719 461.671875 C 308.292969 461.671875 310.042969 463.421875 310.042969 465.578125 L 310.042969 572.464844 C 310.042969 574.621094 308.292969 576.371094 306.136719 576.371094 Z M 306.136719 576.371094 " fill-opacity="1" fill-rule="nonzero"/><path fill="#000000" d="M 103.5625 576.371094 C 101.40625 576.371094 99.65625 574.621094 99.65625 572.464844 L 99.65625 465.578125 C 99.65625 463.421875 101.40625 461.671875 103.5625 461.671875 C 105.71875 461.671875 107.46875 463.421875 107.46875 465.578125 L 107.46875 572.464844 C 107.46875 574.621094 105.71875 576.371094 103.5625 576.371094 Z M 103.5625 576.371094 " fill-opacity="1" fill-rule="nonzero"/><path fill="#000000" d="M 306.136719 469.484375 L 80.9375 469.484375 C 79.496094 469.484375 78.171875 468.6875 77.492188 467.417969 C 76.8125 466.148438 76.890625 464.605469 77.691406 463.40625 L 100.316406 429.585938 C 101.042969 428.503906 102.257812 427.851562 103.5625 427.851562 L 178.667969 427.851562 C 180.824219 427.851562 182.574219 429.601562 182.574219 431.757812 C 182.574219 433.914062 180.824219 435.664062 178.667969 435.664062 L 105.648438 435.664062 L 88.246094 461.675781 L 302.230469 461.675781 L 302.230469 431.757812 C 302.230469 429.601562 303.980469 427.851562 306.136719 427.851562 C 308.292969 427.851562 310.042969 429.601562 310.042969 431.757812 L 310.042969 465.578125 C 310.042969 467.734375 308.292969 469.484375 306.136719 469.484375 Z M 306.136719 469.484375 " fill-opacity="1" fill-rule="nonzero"/><path fill="#000000" d="M 306.136719 435.664062 L 178.667969 435.664062 C 176.511719 435.664062 174.761719 433.914062 174.761719 431.757812 L 174.761719 396.949219 C 174.761719 394.792969 176.511719 393.042969 178.667969 393.042969 C 180.824219 393.042969 182.574219 394.792969 182.574219 396.949219 L 182.574219 427.851562 L 302.234375 427.851562 L 302.234375 396.949219 C 302.234375 394.792969 303.980469 393.042969 306.140625 393.042969 C 308.296875 393.042969 310.042969 394.792969 310.042969 396.949219 L 310.042969 431.757812 C 310.042969 433.914062 308.292969 435.664062 306.136719 435.664062 Z M 306.136719 435.664062 " fill-opacity="1" fill-rule="nonzero"/><path fill="#000000" d="M 306.136719 400.855469 L 157.304688 400.855469 C 155.875 400.855469 154.5625 400.078125 153.878906 398.824219 C 153.195312 397.574219 153.246094 396.050781 154.011719 394.847656 L 168.953125 371.472656 C 169.671875 370.347656 170.910156 369.671875 172.242188 369.671875 L 276.640625 369.671875 C 278.796875 369.671875 280.546875 371.417969 280.546875 373.574219 L 280.546875 387.972656 L 299.058594 370.71875 C 299.78125 370.042969 300.730469 369.671875 301.71875 369.671875 L 306.140625 369.671875 C 308.296875 369.671875 310.042969 371.417969 310.042969 373.574219 L 310.042969 396.949219 C 310.042969 399.105469 308.292969 400.855469 306.136719 400.855469 Z M 286.558594 393.046875 L 302.234375 393.046875 L 302.234375 378.433594 Z M 164.433594 393.046875 L 272.734375 393.046875 L 272.734375 377.480469 L 174.378906 377.480469 Z M 164.433594 393.046875 " fill-opacity="1" fill-rule="nonzero"/><path fill="#000000" d="M 382.515625 411.453125 L 356.003906 411.453125 C 353.847656 411.453125 352.097656 409.703125 352.097656 407.546875 L 352.097656 356.777344 C 352.097656 354.621094 353.847656 352.875 356.003906 352.875 L 382.515625 352.875 C 384.671875 352.875 386.417969 354.621094 386.417969 356.777344 C 386.417969 358.933594 384.671875 360.683594 382.515625 360.683594 L 359.90625 360.683594 L 359.90625 403.640625 L 382.515625 403.640625 C 384.671875 403.640625 386.417969 405.390625 386.417969 407.546875 C 386.417969 409.703125 384.671875 411.453125 382.515625 411.453125 Z M 382.515625 411.453125 " fill-opacity="1" fill-rule="nonzero"/><path fill="#000000" d="M 452.445312 411.453125 L 382.515625 411.453125 C 380.359375 411.453125 378.609375 409.703125 378.609375 407.546875 L 378.609375 356.777344 C 378.609375 354.621094 380.359375 352.875 382.515625 352.875 L 452.445312 352.875 C 454.601562 352.875 456.347656 354.621094 456.347656 356.777344 L 456.347656 407.546875 C 456.347656 409.703125 454.597656 411.453125 452.445312 411.453125 Z M 386.417969 403.640625 L 448.539062 403.640625 L 448.539062 360.683594 L 386.417969 360.683594 Z M 386.417969 403.640625 " fill-opacity="1" fill-rule="nonzero"/><path fill="#000000" d="M 176.59375 576.371094 C 174.4375 576.371094 172.691406 574.621094 172.691406 572.464844 L 172.691406 499.882812 L 141.503906 499.882812 L 141.503906 572.464844 C 141.503906 574.621094 139.753906 576.371094 137.597656 576.371094 C 135.441406 576.371094 133.691406 574.621094 133.691406 572.464844 L 133.691406 495.976562 C 133.691406 493.820312 135.441406 492.070312 137.597656 492.070312 L 176.59375 492.070312 C 178.753906 492.070312 180.5 493.820312 180.5 495.976562 L 180.5 572.464844 C 180.5 574.621094 178.753906 576.371094 176.59375 576.371094 Z M 176.59375 576.371094 " fill-opacity="1" fill-rule="nonzero"/><path fill="#000000" d="M 281.894531 547.011719 L 201.664062 547.011719 C 199.507812 547.011719 197.757812 545.261719 197.757812 543.105469 L 197.757812 495.976562 C 197.757812 493.820312 199.507812 492.070312 201.664062 492.070312 L 281.894531 492.070312 C 284.050781 492.070312 285.800781 493.820312 285.800781 495.976562 L 285.800781 543.105469 C 285.800781 545.261719 284.050781 547.011719 281.894531 547.011719 Z M 205.570312 539.203125 L 277.992188 539.203125 L 277.992188 499.882812 L 205.570312 499.882812 Z M 205.570312 539.203125 " fill-opacity="1" fill-rule="nonzero"/><path fill="#000000" d="M 281.894531 516.449219 L 213.054688 516.449219 C 210.898438 516.449219 209.148438 514.703125 209.148438 512.542969 C 209.148438 510.386719 210.898438 508.640625 213.054688 508.640625 L 281.894531 508.640625 C 284.050781 508.640625 285.800781 510.386719 285.800781 512.542969 C 285.800781 514.703125 284.050781 516.449219 281.894531 516.449219 Z M 281.894531 516.449219 " fill-opacity="1" fill-rule="nonzero"/><path fill="#000000" d="M 281.894531 530.0625 L 213.054688 530.0625 C 210.898438 530.0625 209.148438 528.316406 209.148438 526.160156 C 209.148438 524.003906 210.898438 522.253906 213.054688 522.253906 L 281.894531 522.253906 C 284.050781 522.253906 285.800781 524.003906 285.800781 526.160156 C 285.800781 528.316406 284.050781 530.0625 281.894531 530.0625 Z M 281.894531 530.0625 " fill-opacity="1" fill-rule="nonzero"/><path fill="#000000" d="M 342.378906 498.375 C 340.222656 498.375 338.472656 496.625 338.472656 494.46875 L 338.472656 453.234375 C 338.472656 451.078125 340.222656 449.328125 342.378906 449.328125 L 383.601562 449.328125 C 385.757812 449.328125 387.507812 451.078125 387.507812 453.234375 C 387.507812 455.390625 385.757812 457.136719 383.601562 457.136719 L 346.28125 457.136719 L 346.28125 494.46875 C 346.28125 496.625 344.535156 498.375 342.378906 498.375 Z M 342.378906 498.375 " fill-opacity="1" fill-rule="nonzero"/><path fill="#000000" d="M 383.601562 498.375 C 381.441406 498.375 379.695312 496.625 379.695312 494.46875 L 379.695312 453.234375 C 379.695312 451.078125 381.441406 449.328125 383.601562 449.328125 L 424.832031 449.328125 C 426.988281 449.328125 428.738281 451.078125 428.738281 453.234375 C 428.738281 455.390625 426.988281 457.136719 424.832031 457.136719 L 387.503906 457.136719 L 387.503906 494.46875 C 387.503906 496.625 385.757812 498.375 383.601562 498.375 Z M 383.601562 498.375 " fill-opacity="1" fill-rule="nonzero"/><path fill="#000000" d="M 466.101562 498.375 C 463.945312 498.375 462.195312 496.625 462.195312 494.46875 L 462.195312 457.136719 L 428.738281 457.136719 L 428.738281 494.46875 C 428.738281 496.625 426.988281 498.375 424.832031 498.375 C 422.675781 498.375 420.929688 496.625 420.929688 494.46875 L 420.929688 453.234375 C 420.929688 451.078125 422.675781 449.328125 424.832031 449.328125 L 466.101562 449.328125 C 468.257812 449.328125 470.003906 451.078125 470.003906 453.234375 L 470.003906 494.46875 C 470.003906 496.625 468.257812 498.375 466.101562 498.375 Z M 466.101562 498.375 " fill-opacity="1" fill-rule="nonzero"/><path fill="#000000" d="M 383.601562 539.597656 L 342.375 539.597656 C 340.21875 539.597656 338.472656 537.847656 338.472656 535.691406 L 338.472656 494.464844 C 338.472656 492.308594 340.21875 490.5625 342.375 490.5625 L 383.601562 490.5625 C 385.757812 490.5625 387.503906 492.308594 387.503906 494.464844 C 387.503906 496.621094 385.757812 498.371094 383.601562 498.371094 L 346.28125 498.371094 L 346.28125 531.785156 L 383.601562 531.785156 C 385.757812 531.785156 387.503906 533.535156 387.503906 535.691406 C 387.503906 537.847656 385.757812 539.597656 383.601562 539.597656 Z M 383.601562 539.597656 " fill-opacity="1" fill-rule="nonzero"/><path fill="#000000" d="M 424.832031 539.597656 L 383.601562 539.597656 C 381.445312 539.597656 379.695312 537.847656 379.695312 535.691406 L 379.695312 494.464844 C 379.695312 492.308594 381.445312 490.5625 383.601562 490.5625 L 424.832031 490.5625 C 426.992188 490.5625 428.738281 492.308594 428.738281 494.464844 C 428.738281 496.621094 426.992188 498.371094 424.832031 498.371094 L 387.503906 498.371094 L 387.503906 531.785156 L 424.832031 531.785156 C 426.992188 531.785156 428.738281 533.535156 428.738281 535.691406 C 428.738281 537.847656 426.992188 539.597656 424.832031 539.597656 Z M 424.832031 539.597656 " fill-opacity="1" fill-rule="nonzero"/><path fill="#000000" d="M 466.101562 539.597656 L 424.832031 539.597656 C 422.675781 539.597656 420.929688 537.847656 420.929688 535.691406 L 420.929688 494.464844 C 420.929688 492.308594 422.675781 490.5625 424.832031 490.5625 L 466.101562 490.5625 C 468.257812 490.5625 470.007812 492.308594 470.007812 494.464844 L 470.007812 535.691406 C 470.003906 537.847656 468.257812 539.597656 466.101562 539.597656 Z M 428.738281 531.785156 L 462.195312 531.785156 L 462.195312 498.371094 L 428.738281 498.371094 Z M 428.738281 531.785156 " fill-opacity="1" fill-rule="nonzero"/><path fill="#000000" d="M 521.847656 576.371094 L 76.28125 576.371094 C 74.121094 576.371094 72.375 574.621094 72.375 572.464844 C 72.375 570.308594 74.121094 568.558594 76.28125 568.558594 L 521.847656 568.558594 C 524.007812 568.558594 525.753906 570.308594 525.753906 572.464844 C 525.753906 574.621094 524.007812 576.371094 521.847656 576.371094 Z M 521.847656 576.371094 " fill-opacity="1" fill-rule="nonzero"/><g clip-path="url(#5762600f47)"><path fill="#000000" d="M 486.628906 592.632812 L 264.351562 592.632812 C 262.195312 592.632812 260.445312 590.882812 260.445312 588.726562 C 260.445312 586.570312 262.195312 584.824219 264.351562 584.824219 L 486.628906 584.824219 C 488.785156 584.824219 490.535156 586.570312 490.535156 588.726562 C 490.535156 590.882812 488.785156 592.632812 486.628906 592.632812 Z M 486.628906 592.632812 " fill-opacity="1" fill-rule="nonzero"/></g><g clip-path="url(#30e8495d72)"><path fill="#000000" d="M 168.953125 592.179688 L 63.609375 592.179688 C 61.453125 592.179688 59.703125 590.429688 59.703125 588.273438 C 59.703125 586.117188 61.453125 584.367188 63.609375 584.367188 L 168.953125 584.367188 C 171.109375 584.367188 172.859375 586.117188 172.859375 588.273438 C 172.859375 590.429688 171.109375 592.179688 168.953125 592.179688 Z M 168.953125 592.179688 " fill-opacity="1" fill-rule="nonzero"/></g><path fill="#000000" d="M 247.359375 322.78125 L 196.222656 322.78125 C 189.019531 322.78125 183.15625 316.890625 183.15625 309.648438 C 183.15625 303.777344 187.054688 298.800781 192.402344 297.160156 C 193.160156 291.710938 197.265625 287.320312 202.558594 286.148438 C 204.558594 281.367188 209.226562 278.136719 214.59375 278.136719 C 215.851562 278.136719 217.082031 278.308594 218.273438 278.660156 C 220.972656 276.011719 224.644531 274.496094 228.597656 274.496094 C 235.648438 274.496094 241.550781 279.507812 242.933594 286.160156 C 251.148438 285.992188 257.917969 292.613281 257.917969 300.800781 C 257.917969 301.164062 257.90625 301.515625 257.886719 301.851562 C 259.539062 304.09375 260.457031 306.839844 260.457031 309.648438 C 260.460938 316.890625 254.582031 322.78125 247.359375 322.78125 Z M 205.378906 293.652344 C 202.460938 293.652344 200.085938 296.046875 200.085938 298.988281 C 200.085938 299.28125 200.109375 299.53125 200.164062 299.941406 C 200.328125 301.0625 199.992188 302.199219 199.25 303.054688 C 198.507812 303.910156 197.433594 304.402344 196.300781 304.402344 C 193.324219 304.402344 190.964844 306.753906 190.964844 309.648438 C 190.964844 312.632812 193.273438 314.972656 196.222656 314.972656 L 247.359375 314.972656 C 250.324219 314.972656 252.652344 312.632812 252.652344 309.648438 C 252.652344 308.230469 252.070312 306.851562 251.0625 305.867188 C 250.078125 304.90625 249.667969 303.5 249.988281 302.160156 C 250.070312 301.820312 250.109375 301.375 250.109375 300.800781 C 250.109375 297.03125 247.042969 293.96875 243.277344 293.96875 C 242.386719 293.96875 241.464844 294.140625 240.542969 294.484375 C 239.238281 294.964844 237.777344 294.722656 236.703125 293.835938 C 235.628906 292.953125 235.105469 291.566406 235.328125 290.191406 C 235.390625 289.8125 235.433594 289.410156 235.433594 289.152344 C 235.433594 285.378906 232.367188 282.308594 228.597656 282.308594 C 226.175781 282.308594 223.992188 283.488281 222.757812 285.464844 C 221.636719 287.261719 219.289062 287.835938 217.460938 286.761719 C 216.53125 286.210938 215.59375 285.945312 214.59375 285.945312 C 212.015625 285.945312 209.839844 287.8125 209.410156 290.386719 C 209.097656 292.273438 207.46875 293.652344 205.558594 293.652344 Z M 205.378906 293.652344 " fill-opacity="1" fill-rule="nonzero"/></svg>